<svg width="30" height="30" viewBox="0 0 30 30" fill="none" xmlns="http://www.w3.org/2000/svg">
<path d="M25.7753 10.3922L18.5688 9.34484L15.3473 2.81383C15.2593 2.63501 15.1145 2.49026 14.9357 2.40227C14.4873 2.18088 13.9423 2.36537 13.7181 2.81383L10.4966 9.34484L3.29003 10.3922C3.09135 10.4206 2.90969 10.5142 2.77062 10.6562C2.60248 10.829 2.50983 11.0615 2.51302 11.3026C2.51621 11.5437 2.61499 11.7736 2.78765 11.9419L8.00167 17.0254L6.76983 24.2035C6.74095 24.3705 6.75942 24.5423 6.82317 24.6993C6.88692 24.8563 6.99338 24.9923 7.1305 25.0919C7.26761 25.1915 7.42988 25.2506 7.59891 25.2627C7.76794 25.2747 7.93697 25.2392 8.08682 25.1601L14.5327 21.7711L20.9785 25.1601C21.1545 25.2537 21.3589 25.2849 21.5547 25.2509C22.0486 25.1657 22.3807 24.6974 22.2955 24.2035L21.0637 17.0254L26.2777 11.9419C26.4196 11.8028 26.5133 11.6212 26.5417 11.4225C26.6183 10.9258 26.272 10.466 25.7753 10.3922Z" fill="#F5A623"/>
</svg>
