<svg width="24" height="25" viewBox="0 0 24 25" fill="none" xmlns="http://www.w3.org/2000/svg">
<path d="M10.1 17.5345C10.25 17.3845 10.325 17.2051 10.325 16.9965C10.325 16.7885 10.25 16.6095 10.1 16.4595L6.80001 13.1845H18.575C18.7917 13.1845 18.9707 13.1135 19.112 12.9715C19.254 12.8301 19.325 12.6511 19.325 12.4345C19.325 12.2178 19.254 12.0385 19.112 11.8965C18.9707 11.7551 18.7917 11.6845 18.575 11.6845H6.80001L10.125 8.38447C10.2583 8.23447 10.325 8.05947 10.325 7.85947C10.325 7.65947 10.25 7.48447 10.1 7.33447C9.95001 7.16781 9.77501 7.08447 9.57501 7.08447C9.37501 7.08447 9.19168 7.16781 9.02501 7.33447L4.55001 11.8095C4.46668 11.8928 4.40401 11.9885 4.36201 12.0965C4.32068 12.2051 4.30001 12.3178 4.30001 12.4345C4.30001 12.5511 4.32068 12.6635 4.36201 12.7715C4.40401 12.8801 4.46668 12.9761 4.55001 13.0595L9.05001 17.5595C9.20001 17.7095 9.37501 17.7845 9.57501 17.7845C9.77501 17.7845 9.95001 17.7011 10.1 17.5345Z" fill="white"/>
</svg>
