<svg width="24" height="25" viewBox="0 0 24 25" fill="none" xmlns="http://www.w3.org/2000/svg">
<path d="M13.525 17.5345C13.375 17.3845 13.3 17.2051 13.3 16.9965C13.3 16.7885 13.375 16.6095 13.525 16.4595L16.825 13.1845H5.04999C4.83332 13.1845 4.65432 13.1135 4.51299 12.9715C4.37099 12.8301 4.29999 12.6511 4.29999 12.4345C4.29999 12.2178 4.37099 12.0385 4.51299 11.8965C4.65432 11.7551 4.83332 11.6845 5.04999 11.6845H16.825L13.5 8.38447C13.3667 8.23447 13.3 8.05947 13.3 7.85947C13.3 7.65947 13.375 7.48447 13.525 7.33447C13.675 7.16781 13.85 7.08447 14.05 7.08447C14.25 7.08447 14.4333 7.16781 14.6 7.33447L19.075 11.8095C19.1583 11.8928 19.221 11.9885 19.263 12.0965C19.3043 12.2051 19.325 12.3178 19.325 12.4345C19.325 12.5511 19.3043 12.6635 19.263 12.7715C19.221 12.8801 19.1583 12.9761 19.075 13.0595L14.575 17.5595C14.425 17.7095 14.25 17.7845 14.05 17.7845C13.85 17.7845 13.675 17.7011 13.525 17.5345Z" fill="white"/>
</svg>
