<svg width="33" height="32" viewBox="0 0 33 32" fill="none" xmlns="http://www.w3.org/2000/svg">
<rect x="0.111938" width="32" height="32" rx="16" fill="#CDFF09" fill-opacity="0.08"/>
<path opacity="0.35" d="M19.1162 14.1998H13.1246C12.9657 14.1998 12.8133 14.263 12.7009 14.3755C12.5886 14.4881 12.5254 14.6407 12.5254 14.7998C12.5254 14.9589 12.5886 15.1115 12.7009 15.224C12.8133 15.3365 12.9657 15.3998 13.1246 15.3998H19.1162C19.2751 15.3998 19.4275 15.3365 19.5398 15.224C19.6522 15.1115 19.7153 14.9589 19.7153 14.7998C19.7153 14.6407 19.6522 14.4881 19.5398 14.3755C19.4275 14.263 19.2751 14.1998 19.1162 14.1998ZM16.7195 16.5997H13.1246C12.9657 16.5997 12.8133 16.6629 12.7009 16.7754C12.5886 16.888 12.5254 17.0406 12.5254 17.1997C12.5254 17.3588 12.5886 17.5114 12.7009 17.6239C12.8133 17.7364 12.9657 17.7997 13.1246 17.7997H16.7195C16.8784 17.7997 17.0308 17.7364 17.1432 17.6239C17.2556 17.5114 17.3187 17.3588 17.3187 17.1997C17.3187 17.0406 17.2556 16.888 17.1432 16.7754C17.0308 16.6629 16.8784 16.5997 16.7195 16.5997ZM16.1204 10C15.3336 10 14.5544 10.1552 13.8275 10.4567C13.1006 10.7582 12.4401 11.2002 11.8837 11.7573C10.7601 12.8825 10.1288 14.4085 10.1288 15.9997C10.1236 17.3852 10.6026 18.7287 11.4829 19.7976L10.2846 20.9975C10.2015 21.0819 10.1452 21.189 10.1228 21.3054C10.1004 21.4218 10.1129 21.5422 10.1588 21.6515C10.2085 21.7594 10.2892 21.8501 10.3906 21.9121C10.4919 21.9741 10.6093 22.0045 10.728 21.9995H16.1204C17.7094 21.9995 19.2334 21.3674 20.3571 20.2422C21.4807 19.117 22.1119 17.591 22.1119 15.9997C22.1119 14.4085 21.4807 12.8825 20.3571 11.7573C19.2334 10.6321 17.7094 10 16.1204 10ZM16.1204 20.7995H12.1719L12.7292 20.2415C12.8408 20.1291 12.9034 19.9771 12.9034 19.8186C12.9034 19.6601 12.8408 19.508 12.7292 19.3956C11.9446 18.6108 11.4561 17.578 11.3467 16.473C11.2374 15.368 11.514 14.2592 12.1295 13.3356C12.745 12.4119 13.6613 11.7305 14.7223 11.4075C15.7832 11.0845 16.9232 11.1398 17.9479 11.5641C18.9727 11.9883 19.8189 12.7552 20.3423 13.7342C20.8657 14.7131 21.034 15.8435 20.8184 16.9327C20.6029 18.0219 20.0169 19.0026 19.1602 19.7077C18.3036 20.4128 17.2293 20.7986 16.1204 20.7995Z" fill="#CDFF09"/>
</svg>
