<svg width="33" height="32" viewBox="0 0 33 32" fill="none" xmlns="http://www.w3.org/2000/svg">
<g opacity="0.6">
<path d="M13.1077 14.1998H19.0993C19.2582 14.1998 19.4106 14.263 19.5229 14.3755C19.6353 14.4881 19.6984 14.6407 19.6984 14.7998C19.6984 14.9589 19.6353 15.1115 19.5229 15.224C19.4106 15.3365 19.2582 15.3998 19.0993 15.3998H13.1077C12.9488 15.3998 12.7964 15.3365 12.684 15.224C12.5717 15.1115 12.5086 14.9589 12.5086 14.7998C12.5086 14.6407 12.5717 14.4881 12.684 14.3755C12.7964 14.263 12.9488 14.1998 13.1077 14.1998ZM15.5043 16.5997H19.0993C19.2582 16.5997 19.4106 16.6629 19.5229 16.7754C19.6353 16.888 19.6984 17.0406 19.6984 17.1997C19.6984 17.3588 19.6353 17.5114 19.5229 17.6239C19.4106 17.7364 19.2582 17.7997 19.0993 17.7997H15.5043C15.3454 17.7997 15.193 17.7364 15.0807 17.6239C14.9683 17.5114 14.9052 17.3588 14.9052 17.1997C14.9052 17.0406 14.9683 16.888 15.0807 16.7754C15.193 16.6629 15.3454 16.5997 15.5043 16.5997ZM16.1035 10C16.8903 10 17.6694 10.1552 18.3964 10.4567C19.1233 10.7582 19.7838 11.2002 20.3402 11.7573C21.4638 12.8825 22.0951 14.4085 22.0951 15.9997C22.1003 17.3852 21.6212 18.7287 20.741 19.7976L21.9393 20.9975C22.0224 21.0819 22.0787 21.189 22.1011 21.3054C22.1235 21.4218 22.111 21.5422 22.0651 21.6515C22.0153 21.7594 21.9347 21.8501 21.8333 21.9121C21.732 21.9741 21.6145 22.0045 21.4959 21.9995H16.1035C14.5144 21.9995 12.9905 21.3674 11.8668 20.2422C10.7432 19.117 10.1119 17.591 10.1119 15.9997C10.1119 14.4085 10.7432 12.8825 11.8668 11.7573C12.9905 10.6321 14.5144 10 16.1035 10ZM16.1035 20.7995H20.0519L19.4947 20.2415C19.3831 20.1291 19.3205 19.9771 19.3205 19.8186C19.3205 19.6601 19.3831 19.508 19.4947 19.3956C20.2793 18.6108 20.7678 17.578 20.8772 16.473C20.9865 15.368 20.7098 14.2592 20.0943 13.3356C19.4788 12.4119 18.5626 11.7305 17.5016 11.4075C16.4407 11.0845 15.3007 11.1398 14.2759 11.5641C13.2512 11.9883 12.405 12.7552 11.8816 13.7342C11.3582 14.7131 11.1899 15.8435 11.4054 16.9327C11.621 18.0219 12.207 19.0026 13.0637 19.7077C13.9203 20.4128 14.9946 20.7986 16.1035 20.7995Z" fill="white"/>
</g>
</svg>
