<svg width="33" height="32" viewBox="0 0 33 32" fill="none" xmlns="http://www.w3.org/2000/svg">
<path d="M21.6756 10.0114C21.4165 9.95928 21.1574 10.0896 21.0619 10.3242C20.9119 10.6499 19.4665 12.0833 18.2256 12.1355C17.5165 12.1615 16.8619 11.6924 16.1665 11.1972C15.2665 10.5717 14.271 9.86807 12.9892 10.1026C11.0938 10.4414 10.2074 12.0703 10.1665 12.1485C10.1119 12.2528 10.0983 12.3831 10.1256 12.5003L10.671 14.8329L12.2665 21.596C12.321 21.8436 12.5528 22 12.7983 22C12.8392 22 12.8801 22 12.921 21.987C13.221 21.9218 13.3983 21.6482 13.3301 21.3615L12.4028 17.4131C12.6483 17.0482 13.3438 16.149 14.4347 15.9145C15.0892 15.7711 15.6074 15.9405 16.2074 16.123C16.8756 16.3315 17.6392 16.5791 18.621 16.3706C20.6801 15.9145 22.071 13.5689 22.1119 10.5196C22.1119 10.272 21.9347 10.0635 21.6756 10.0114ZM18.3756 15.3542C17.6938 15.4975 17.1619 15.3281 16.5483 15.1326C15.8801 14.9241 15.1301 14.6765 14.1892 14.885C13.2619 15.0805 12.5665 15.6017 12.0892 16.0969L12.0347 15.8624L11.2301 12.4743C11.4619 12.1355 12.1028 11.3275 13.1801 11.1321C13.9983 10.9887 14.6938 11.4709 15.4983 12.0443C16.2756 12.5916 17.1756 13.2171 18.2528 13.178C19.1665 13.1389 20.1074 12.6307 20.8438 12.0573C20.5301 13.621 19.7256 15.0544 18.3756 15.3542Z" fill="#D2D3D6"/>
</svg>
