<svg width="25" height="24" viewBox="0 0 25 24" fill="none" xmlns="http://www.w3.org/2000/svg">
<g clip-path="url(#clip0_2_4200)">
<path d="M7.69842 22.5001C16.7554 22.5001 21.7099 14.9956 21.7099 8.49906C21.7099 8.28906 21.7099 8.07606 21.7009 7.86606C22.6655 7.16779 23.498 6.30329 24.1594 5.31306C23.2584 5.71034 22.3036 5.97217 21.3259 6.09006C22.3557 5.47452 23.127 4.50602 23.4964 3.36456C22.5289 3.93775 21.4699 4.34012 20.3659 4.55406C19.6237 3.7636 18.6415 3.23994 17.5716 3.0642C16.5016 2.88846 15.4035 3.07045 14.4474 3.58197C13.4914 4.09349 12.7306 4.90601 12.2831 5.89365C11.8356 6.8813 11.7262 7.98896 11.9719 9.04506C10.014 8.94689 8.09865 8.43826 6.34999 7.55218C4.60133 6.66609 3.05845 5.42233 1.82142 3.90156C1.19343 4.98619 1.00178 6.26916 1.28539 7.48996C1.569 8.71076 2.30661 9.77786 3.34842 10.4746C2.56773 10.448 1.80421 10.2384 1.11942 9.86256V9.93006C1.12077 11.0663 1.51438 12.1672 2.23373 13.0467C2.95308 13.9262 3.95405 14.5304 5.06742 14.7571C4.64482 14.8735 4.20827 14.9315 3.76992 14.9296C3.4609 14.9305 3.15249 14.9019 2.84892 14.8441C3.1636 15.8221 3.77633 16.6773 4.60129 17.2898C5.42625 17.9022 6.42213 18.2413 7.44942 18.2596C5.70426 19.6303 3.54853 20.3737 1.32942 20.3701C0.938405 20.3717 0.547659 20.3492 0.159424 20.3026C2.4117 21.7385 5.02737 22.5009 7.69842 22.5001Z" fill="white"/>
</g>
<defs>
<clipPath id="clip0_2_4200">
<rect width="24" height="24" fill="white" transform="translate(0.159424)"/>
</clipPath>
</defs>
</svg>
