<svg width="206" height="39" viewBox="0 0 206 39" fill="none" xmlns="http://www.w3.org/2000/svg">
<path d="M19.7414 38.5185C30.3783 38.5185 39.0007 29.8961 39.0007 19.2593V5.77778C39.0007 4.24542 38.3919 2.77582 37.3084 1.69227C36.2249 0.608728 34.7553 0 33.2229 0L20.7044 0V8.44904C20.7044 10.3769 20.8219 12.3741 21.833 14.015C22.5568 15.1909 23.5251 16.1975 24.6723 16.9662C25.8194 17.735 27.1184 18.2481 28.4813 18.4706L28.8501 18.5303C29.0021 18.5823 29.1341 18.6805 29.2276 18.8112C29.321 18.9419 29.3713 19.0986 29.3713 19.2593C29.3713 19.4199 29.321 19.5766 29.2276 19.7073C29.1341 19.838 29.0021 19.9362 28.8501 19.9882L28.4813 20.0479C26.49 20.3732 24.6512 21.3157 23.2246 22.7424C21.7979 24.1691 20.8554 26.0079 20.5301 27.9991L20.4704 28.3679C20.4184 28.52 20.3202 28.652 20.1895 28.7454C20.0588 28.8389 19.9021 28.8891 19.7414 28.8891C19.5807 28.8891 19.4241 28.8389 19.2934 28.7454C19.1626 28.652 19.0644 28.52 19.0124 28.3679L18.9527 27.9991C18.7302 26.6363 18.2171 25.3372 17.4483 24.1901C16.6795 23.043 15.6731 22.0747 14.4971 21.3508C12.8562 20.3397 10.859 20.2222 8.93119 20.2222H0.505268C1.0089 30.4113 9.42808 38.5185 19.7414 38.5185Z" fill="white"/>
<path d="M0.482346 18.2963H8.93138C10.8592 18.2963 12.8564 18.1788 14.4973 17.1677C15.78 16.3774 16.8597 15.2976 17.65 14.015C18.6612 12.3741 18.7786 10.3769 18.7786 8.44904V0H6.26012C4.72776 0 3.25816 0.608728 2.17462 1.69227C1.09107 2.77582 0.482346 4.24542 0.482346 5.77778L0.482346 18.2963ZM45.2168 1.92593C45.2168 2.43671 45.0139 2.92658 44.6527 3.28776C44.2915 3.64894 43.8017 3.85185 43.2909 3.85185C42.7801 3.85185 42.2902 3.64894 41.929 3.28776C41.5678 2.92658 41.3649 2.43671 41.3649 1.92593C41.3649 1.41514 41.5678 0.925272 41.929 0.564091C42.2902 0.202909 42.7801 0 43.2909 0C43.8017 0 44.2915 0.202909 44.6527 0.564091C45.0139 0.925272 45.2168 1.41514 45.2168 1.92593ZM204.352 11.6557C209.736 11.6557 212.334 15.4161 212.334 19.7716V27.9519H206.7V20.7422C206.7 18.7681 205.98 17.1388 203.914 17.1388C201.848 17.1388 201.16 18.7681 201.16 20.7422V27.951H195.526V20.7422C195.526 18.7681 194.837 17.1388 192.771 17.1388C190.705 17.1388 189.985 18.7681 189.985 20.7422V27.951H184.351V19.7706C184.351 15.4151 186.949 11.6547 192.332 11.6547C195.275 11.6547 197.403 12.8141 198.374 14.7256C199.406 12.8141 201.661 11.6538 204.352 11.6538V11.6557ZM174.227 22.9378C176.042 22.9378 176.825 21.2767 176.825 19.3016V12.2816H182.458V19.9911C182.458 24.5979 179.767 28.4219 174.227 28.4219C168.686 28.4219 165.994 24.5989 165.994 19.9911V12.2816H171.629V19.3016C171.629 21.2757 172.411 22.9378 174.227 22.9378ZM157.71 28.4527C154.173 28.4527 151.888 27.2307 150.542 24.8493L154.611 22.5613C155.175 23.5637 156.019 24.0654 157.428 24.0654C158.586 24.0654 159.118 23.6581 159.118 23.1564C159.118 21.2449 150.855 23.1881 150.855 17.109C150.855 14.1623 153.358 11.7809 157.616 11.7809C161.34 11.7809 163.375 13.598 164.283 15.3535L160.214 17.6723C159.87 16.7324 158.805 16.1681 157.741 16.1681C156.927 16.1681 156.489 16.5129 156.489 16.9828C156.489 18.9261 164.752 17.1398 164.752 23.0312C164.752 26.3216 161.528 28.4527 157.71 28.4527ZM138.025 35.1597H132.391V20.0855C132.391 15.2899 135.99 11.8117 140.999 11.8117C145.882 11.8117 149.607 15.5413 149.607 20.0855C149.607 25.0996 146.288 28.4219 141.312 28.4219C140.153 28.4219 138.996 28.0771 138.025 27.5436V35.1597ZM140.999 23.1256C142.783 23.1256 143.972 21.7466 143.972 20.1163C143.972 18.4561 142.783 17.108 140.999 17.108C139.214 17.108 138.025 18.4561 138.025 20.1173C138.025 21.7466 139.214 23.1256 140.999 23.1256ZM126.747 10.6215C124.9 10.6215 123.367 9.08556 123.367 7.23667C123.367 5.38778 124.9 3.85185 126.747 3.85185C128.594 3.85185 130.128 5.38778 130.128 7.23667C130.128 9.08556 128.594 10.6215 126.747 10.6215ZM123.93 12.2816H129.565V27.9519H123.93V12.2816ZM113.12 28.4219C108.237 28.4219 104.512 24.6615 104.512 20.0855C104.512 15.5413 108.237 11.7809 113.12 11.7809C118.003 11.7809 121.728 15.5413 121.728 20.0855C121.728 24.6615 118.003 28.4219 113.12 28.4219ZM113.12 23.1256C114.904 23.1256 116.094 21.7466 116.094 20.1163C116.094 18.4561 114.904 17.0772 113.12 17.0772C111.336 17.0772 110.146 18.4561 110.146 20.1163C110.146 21.7466 111.336 23.1256 113.12 23.1256ZM93.8734 35.6296C89.9926 35.6296 87.175 33.9059 85.7354 30.8341L90.399 28.3275C90.8997 29.3935 91.8386 30.4903 93.779 30.4903C95.8147 30.4903 97.16 29.2047 97.3169 26.9485C96.5658 27.6072 95.3756 28.1079 93.5922 28.1079C89.2406 28.1079 85.7344 24.7549 85.7344 20.0537C85.7344 15.5104 89.4601 11.8117 94.3433 11.8117C99.3517 11.8117 102.951 15.2909 102.951 20.0855V26.2908C102.951 31.9319 99.0378 35.6296 93.8734 35.6296ZM94.2489 22.8126C95.9389 22.8126 97.2226 21.6522 97.2226 19.9285C97.2226 18.2366 95.9399 17.108 94.2489 17.108C92.5898 17.108 91.2753 18.2366 91.2753 19.9295C91.2753 21.6532 92.5898 22.8116 94.2489 22.8116V22.8126ZM76.178 28.4219C71.2948 28.4219 67.5691 24.6615 67.5691 20.0855C67.5691 15.5413 71.2948 11.7809 76.178 11.7809C81.0602 11.7809 84.7859 15.5413 84.7859 20.0855C84.7859 24.6615 81.0612 28.4219 76.178 28.4219ZM76.178 23.1256C77.9623 23.1256 79.1516 21.7466 79.1516 20.1163C79.1516 18.4561 77.9623 17.0772 76.178 17.0772C74.3936 17.0772 73.2043 18.4561 73.2043 20.1163C73.2043 21.7466 74.3936 23.1256 76.178 23.1256ZM57.3097 6.79852V22.6238H66.6379V27.9519H56.5268C52.959 27.9519 51.5194 26.0713 51.5194 23.0938V6.79852H57.3097Z" fill="white"/>
</svg>
