<svg width="50" height="50" viewBox="0 0 50 50" fill="none" xmlns="http://www.w3.org/2000/svg">
<path d="M25.6818 13.8681C25.6818 15.3529 24.3939 16.615 22.8788 16.615C21.3636 16.615 20.0757 15.3529 20.0757 13.8681C20.0757 12.3832 21.2879 11.1211 22.8788 11.1211C24.4697 11.1211 25.6818 12.309 25.6818 13.8681ZM42.5757 26.3408C40 24.0393 36.6667 22.7772 33.106 22.9256C29.6212 23.0741 26.3636 24.559 23.9394 27.0832C21.5151 29.6817 20.303 33.1711 20.5303 36.6605L16.2121 38.3681C15.9848 38.4423 15.7576 38.665 15.7576 38.962C15.6818 39.1847 15.8333 39.4817 16.0606 39.6302C18.4848 41.5605 20.9091 42.9711 23.4091 43.862C23.7879 44.3817 24.3182 44.9014 24.7727 45.3469C27.197 47.5741 30.3788 48.762 33.6364 48.762H34.2424C37.7273 48.6135 40.9848 47.1287 43.4091 44.6044C48.3333 39.3332 47.9545 31.1665 42.5757 26.3408ZM36.9697 42.7484C36.6667 43.1938 36.2879 43.6393 35.9091 44.0847C35.8333 44.159 35.7576 44.159 35.7576 44.2332H35.6818C35.606 44.2332 35.5303 44.3075 35.4545 44.3075C35.3788 44.3075 35.303 44.3075 35.2273 44.2332C35.1515 44.159 35.1515 44.2332 35.1515 44.159C35.0757 44.159 35.0757 44.0847 35 44.0847C34.9242 44.0847 34.9242 44.0105 34.9242 43.9362L34.8485 43.862V43.2681C36.2879 39.8529 35.1515 35.9181 32.197 33.6165L31.2121 35.1014C31.0606 35.3241 30.8333 35.4726 30.606 35.4726H30.4545C30.1515 35.3984 29.9242 35.1756 29.8485 34.8787L28.5606 29.2362C28.4848 28.865 28.7121 28.4196 29.1667 28.3453L34.8485 27.0832C35.1515 27.009 35.4545 27.1575 35.606 27.3802C35.7576 27.6029 35.7576 27.9741 35.606 28.1969L34.697 29.6075C38.7121 32.7999 39.7727 38.5166 36.9697 42.7484Z" fill="#CDFF09"/>
<path d="M26.8939 6.44391C24.7727 3.69694 21.7424 1.84088 18.2576 1.39543C14.7727 0.949971 11.2879 1.76664 8.48483 3.77118C2.65149 8.003 1.43937 16.0954 5.75756 21.8121C6.13634 22.3318 6.59089 22.8515 7.12119 23.2969C7.72725 25.8954 8.93937 28.3454 10.606 30.9439C10.7576 31.1666 10.9848 31.3151 11.2121 31.3151H11.2879C11.5909 31.3151 11.8182 31.1666 11.8939 30.9439L14.0909 26.8606C14.8485 27.0091 15.606 27.0833 16.2879 27.0833C19.0909 27.0833 21.8182 26.1924 24.1666 24.5591C29.9242 20.3272 31.2121 12.1606 26.8939 6.44391ZM23.2576 23.3712C20.5303 25.3015 17.1212 26.0439 13.8636 25.3757H13.5606C13.4848 25.3757 13.4848 25.3757 13.4091 25.45C13.3333 25.45 13.3333 25.5242 13.2576 25.5242L13.1818 25.5985C13.106 25.5985 13.106 25.6727 13.0303 25.7469L11.2121 29.1621C9.92422 27.0833 9.01513 25.0045 8.56059 22.8515V22.7772C8.56059 22.7772 8.56059 22.703 8.48483 22.703C8.48483 22.6288 8.40907 22.6288 8.40907 22.5545L8.33331 22.4803C7.87877 22.0348 7.42422 21.5151 6.96968 20.9954C3.10604 15.9469 4.2424 8.74543 9.39392 4.95906C11.8939 3.103 14.9242 2.36058 18.0303 2.80603C21.1363 3.25149 23.7879 4.88482 25.6818 7.33482C29.4697 12.3833 28.4091 19.5848 23.2576 23.3712Z" fill="#CDFF09"/>
<path d="M10.1515 16.615C11.6996 16.615 12.9545 15.3852 12.9545 13.8681C12.9545 12.351 11.6996 11.1211 10.1515 11.1211C8.60342 11.1211 7.34846 12.351 7.34846 13.8681C7.34846 15.3852 8.60342 16.615 10.1515 16.615Z" fill="#CDFF09"/>
<path d="M19.4697 13.8681C19.4697 15.3529 18.2576 16.615 16.6666 16.615C15.0757 16.615 13.9394 15.3529 13.9394 13.8681C13.9394 12.3832 15.2273 11.1211 16.7424 11.1211C18.2576 11.1211 19.4697 12.309 19.4697 13.8681Z" fill="#CDFF09"/>
</svg>
