<svg width="43" height="44" viewBox="0 0 43 44" fill="none" xmlns="http://www.w3.org/2000/svg">
<path d="M42.3773 11.8759L31.6649 1.1635C30.9749 0.473496 29.8598 0.473496 29.1698 1.1635L24.6674 5.67289C25.0359 5.58786 25.4201 5.59828 25.7836 5.70317C26.147 5.80806 26.4777 6.00394 26.7443 6.27228C27.7201 7.24804 27.6086 8.88592 26.4167 9.71531C25.678 10.2241 24.6604 10.2311 23.9216 9.72925C23.5427 9.47798 23.2491 9.11744 23.0798 8.69546C22.9105 8.27349 22.8735 7.81002 22.9737 7.36653L18.4713 11.8689C17.7813 12.5589 17.7813 13.6741 18.4713 14.3641L22.9737 18.8735C22.8134 18.1556 23.0086 17.3611 23.5731 16.7965C23.8076 16.562 24.0912 16.3825 24.4035 16.2708C24.7157 16.1592 25.0489 16.1182 25.3789 16.1509C25.7089 16.1835 26.0276 16.289 26.3119 16.4597C26.5962 16.6304 26.8391 16.8621 27.0231 17.138C27.5249 17.8768 27.5249 18.8944 27.0231 19.6332C26.7718 20.0079 26.4129 20.2978 25.9936 20.4645C25.5743 20.6312 25.1143 20.667 24.6743 20.5671L29.1767 25.0696C29.8667 25.7596 30.9819 25.7596 31.6719 25.0696L36.1743 20.5671C35.9722 21.4244 36.2928 22.3653 37.1222 22.9299C37.861 23.4317 38.8786 23.4247 39.6174 22.9159C39.8909 22.7306 40.1202 22.487 40.2887 22.2028C40.4572 21.9185 40.5608 21.6005 40.5921 21.2716C40.6234 20.9426 40.5816 20.6108 40.4697 20.2998C40.3578 19.9889 40.1786 19.7065 39.9449 19.4729C39.6783 19.2045 39.3476 19.0087 38.9842 18.9038C38.6208 18.7989 38.2366 18.7885 37.868 18.8735L42.3704 14.3711C43.0674 13.6811 43.0673 12.5659 42.3773 11.8759ZM20.367 24.8674C21.2104 25.0626 22.1583 24.7489 22.7158 23.9335C23.2177 23.1947 23.2177 22.1771 22.7158 21.4383C22.5324 21.1618 22.2897 20.9295 22.0053 20.7584C21.721 20.5872 21.4022 20.4814 21.0719 20.4487C20.7416 20.416 20.4082 20.4572 20.0959 20.5693C19.7835 20.6814 19.5 20.8616 19.2658 21.0968C18.7013 21.6614 18.5061 22.4559 18.6664 23.1738L14.164 18.6714C13.474 17.9814 12.3589 17.9814 11.6689 18.6714L7.16644 23.1738C7.25147 22.8052 7.24105 22.421 7.13616 22.0576C7.03128 21.6941 6.83539 21.3634 6.56705 21.0968C6.33343 20.8631 6.05105 20.6839 5.74011 20.572C5.42917 20.4602 5.09735 20.4184 4.76838 20.4497C4.43941 20.481 4.12142 20.5846 3.83716 20.7531C3.55289 20.9216 3.30937 21.1508 3.12402 21.4244C2.61523 22.1632 2.60826 23.1808 3.11008 23.9196C3.66765 24.742 4.61553 25.0626 5.47281 24.8674L0.970381 29.3768C0.280381 30.0668 0.280381 31.182 0.970381 31.872L11.6828 42.5844C12.3728 43.2744 13.488 43.2744 14.178 42.5844L18.6804 38.082C18.4783 38.9393 18.7989 39.8802 19.6283 40.4447C20.367 40.9465 21.3846 40.9396 22.1234 40.4308C22.397 40.2454 22.6262 40.0019 22.7947 39.7176C22.9632 39.4334 23.0668 39.1154 23.0981 38.7864C23.1294 38.4574 23.0876 38.1256 22.9758 37.8147C22.8639 37.5037 22.6847 37.2214 22.451 36.9877C22.1844 36.7194 21.8537 36.5235 21.4903 36.4186C21.1268 36.3137 20.7426 36.3033 20.374 36.3883L24.8764 31.8859C25.5664 31.1959 25.5664 30.0808 24.8764 29.3908L20.367 24.8674ZM32.4734 31.6908C32.4089 31.6262 32.3323 31.5751 32.248 31.5401C32.1637 31.5052 32.0733 31.4872 31.982 31.4872C31.8908 31.4872 31.8004 31.5052 31.7161 31.5401C31.6318 31.5751 31.5552 31.6262 31.4907 31.6908C31.4262 31.7553 31.375 31.8319 31.3401 31.9162C31.3051 32.0005 31.2872 32.0909 31.2872 32.1821C31.2872 32.2734 31.3051 32.3637 31.3401 32.4481C31.375 32.5324 31.4262 32.609 31.4907 32.6735L33.6443 34.8271C33.7837 34.9665 33.958 35.0293 34.1392 35.0293C34.3204 35.0293 34.4946 34.9596 34.634 34.8271C34.6986 34.7627 34.7499 34.6861 34.7849 34.6017C34.8198 34.5174 34.8378 34.427 34.8378 34.3358C34.8378 34.2445 34.8198 34.1541 34.7849 34.0698C34.7499 33.9855 34.6986 33.9089 34.634 33.8444L32.4734 31.6908ZM37.2755 30.3665L34.0625 29.795C33.6861 29.7253 33.3237 29.9832 33.254 30.3596C33.1843 30.7359 33.4422 31.0983 33.8186 31.168L37.0316 31.7396C37.0734 31.7465 37.1152 31.7535 37.157 31.7535C37.4916 31.7535 37.7843 31.5165 37.8401 31.175C37.9028 30.7986 37.6519 30.4362 37.2755 30.3665ZM30.1595 33.4541C29.7831 33.5238 29.5252 33.8862 29.5949 34.2626L30.1664 37.4756C30.2292 37.8102 30.5219 38.0541 30.8495 38.0541C30.8913 38.0541 30.9331 38.0541 30.9749 38.0402C31.3513 37.9705 31.6092 37.608 31.5395 37.2317L30.968 34.0186C30.9052 33.6423 30.5428 33.3914 30.1595 33.4541ZM10.8674 12.0502C11.0067 12.1896 11.181 12.2523 11.3622 12.2523C11.5434 12.2523 11.7177 12.1826 11.857 12.0502C11.9217 11.9857 11.9729 11.9091 12.0079 11.8248C12.0429 11.7405 12.0609 11.6501 12.0609 11.5588C12.0609 11.4675 12.0429 11.3771 12.0079 11.2928C11.9729 11.2085 11.9217 11.1319 11.857 11.0674L9.70341 8.9138C9.63888 8.84927 9.56228 8.79809 9.47797 8.76317C9.39366 8.72824 9.3033 8.71027 9.21205 8.71027C9.12079 8.71027 9.03043 8.72824 8.94612 8.76317C8.86182 8.79809 8.78521 8.84927 8.72068 8.9138C8.65616 8.97833 8.60497 9.05493 8.57005 9.13924C8.53513 9.22355 8.51715 9.31391 8.51715 9.40516C8.51715 9.49642 8.53513 9.58678 8.57005 9.67109C8.60497 9.75539 8.65616 9.832 8.72068 9.89653L10.8674 12.0502ZM13.0558 10.2938C13.0977 10.2938 13.1395 10.2938 13.1813 10.2799C13.5577 10.2102 13.8155 9.84774 13.7458 9.47138L13.1743 6.25835C13.1046 5.88198 12.7422 5.6241 12.3658 5.6938C11.9895 5.7635 11.7316 6.12592 11.8013 6.50228L12.3728 9.71531C12.4286 10.0568 12.7213 10.2938 13.0558 10.2938ZM6.06523 13.3744L9.27826 13.9459C9.32008 13.9529 9.3619 13.9599 9.40371 13.9599C9.73826 13.9599 10.031 13.7229 10.0867 13.3814C10.1564 13.005 9.89856 12.6426 9.5222 12.5729L6.30917 12.0014C5.93281 11.9317 5.57038 12.1896 5.50068 12.5659C5.43796 12.9423 5.68887 13.3047 6.06523 13.3744Z" fill="#CDFF09"/>
</svg>
