<svg width="17" height="16" viewBox="0 0 17 16" fill="none" xmlns="http://www.w3.org/2000/svg">
<path d="M5.77913 7.72287C5.96042 7.72287 6.11248 7.65999 6.23533 7.53422C6.35818 7.40846 6.4194 7.253 6.41897 7.06784C6.41897 6.88225 6.35754 6.72679 6.23469 6.60146C6.11185 6.47614 5.95999 6.41325 5.77913 6.41282C5.59784 6.41282 5.44598 6.4757 5.32356 6.60146C5.20113 6.72723 5.13971 6.88269 5.13928 7.06784C5.13928 7.25343 5.20071 7.40911 5.32356 7.53488C5.44641 7.66064 5.59826 7.7233 5.77913 7.72287ZM8.3385 7.72287C8.51979 7.72287 8.67186 7.65999 8.79471 7.53422C8.91756 7.40846 8.97877 7.253 8.97834 7.06784C8.97834 6.88225 8.91692 6.72679 8.79407 6.60146C8.67122 6.47614 8.51936 6.41325 8.3385 6.41282C8.15721 6.41282 8.00536 6.4757 7.88293 6.60146C7.76051 6.72723 7.69908 6.88269 7.69866 7.06784C7.69866 7.25343 7.76008 7.40911 7.88293 7.53488C8.00578 7.66064 8.15764 7.7233 8.3385 7.72287ZM10.8979 7.72287C11.0792 7.72287 11.2312 7.65999 11.3541 7.53422C11.4769 7.40846 11.5381 7.253 11.5377 7.06784C11.5377 6.88225 11.4763 6.72679 11.3534 6.60146C11.2306 6.47614 11.0787 6.41325 10.8979 6.41282C10.7166 6.41282 10.5647 6.4757 10.4423 6.60146C10.3199 6.72723 10.2585 6.88269 10.258 7.06784C10.258 7.25343 10.3195 7.40911 10.4423 7.53488C10.5652 7.66064 10.717 7.7233 10.8979 7.72287ZM4.49944 12.308L3.0278 13.8146C2.82518 14.022 2.59313 14.0685 2.33165 13.9541C2.07017 13.8397 1.93964 13.6349 1.94006 13.3397V3.13769C1.94006 2.77742 2.06547 2.46913 2.31629 2.21279C2.56711 1.95646 2.86826 1.82807 3.21975 1.82764H13.4573C13.8092 1.82764 14.1105 1.95602 14.3613 2.21279C14.6122 2.46956 14.7374 2.77786 14.7369 3.13769V10.998C14.7369 11.3583 14.6117 11.6668 14.3613 11.9235C14.111 12.1803 13.8096 12.3085 13.4573 12.308H4.49944ZM3.95557 10.998H13.4573V3.13769H3.21975V11.7349L3.95557 10.998Z" fill="#F7F7F7"/>
</svg>
