<svg width="84" height="88" viewBox="0 0 84 88" fill="none" xmlns="http://www.w3.org/2000/svg">
<g clip-path="url(#clip0_2_3533)">
<path d="M41.5595 36.6107C51.7873 36.6107 60.045 28.5307 60.045 18.5229C60.045 8.51505 51.7873 0.435059 41.5595 0.435059C31.3316 0.435059 23.074 8.51505 23.074 18.5229C23.074 28.5307 31.3316 36.6107 41.5595 36.6107ZM41.8409 28.8983C40.6209 28.8983 39.5887 27.8883 39.5887 26.6945C39.5887 25.5008 40.6209 24.4908 41.8409 24.4908C43.0609 24.4908 44.0931 25.5008 44.0931 26.6945C44.0931 27.8883 43.0609 28.8983 41.8409 28.8983ZM41.6531 8.14779C44.374 8.14779 46.6263 9.43318 47.752 11.637C48.7842 13.6569 48.5964 16.044 47.2827 17.8802C46.4384 19.074 45.4997 19.6248 44.8432 20.0839C44.0924 20.5431 43.811 20.8185 43.7174 22.0124C43.7174 22.5632 43.248 22.9308 42.6851 22.9308H41.09C40.5271 22.9308 40.0578 22.38 40.0578 21.8292C40.2457 19.0745 41.3715 18.1569 42.7787 17.1467C43.3416 16.7798 43.8109 16.4121 44.3738 15.7698C44.9367 15.0351 44.9367 14.1174 44.5617 13.2906C44.2802 12.7398 43.5294 11.8213 41.7464 11.8213C39.4006 11.8213 38.6499 13.2906 38.4619 14.3922C38.3683 14.8514 37.9926 15.2184 37.4296 15.2184H35.8345C35.1774 15.2184 34.7087 14.6676 34.8023 14.1168C35.1787 10.9939 37.3367 8.14776 41.6528 8.14776L41.6531 8.14779Z" fill="white"/>
<path d="M25.8893 48.0879C25.8893 53.6151 21.3101 58.0957 15.6614 58.0957C10.0127 58.0957 5.43289 53.6151 5.43289 48.0879C5.43289 42.5607 10.0127 38.0801 15.6614 38.0801C21.3101 38.0801 25.8893 42.5607 25.8893 48.0879Z" fill="white"/>
<path d="M19.5083 60.7588H11.9079C6.46542 60.7588 1.77367 64.7989 1.11716 70.1242L0.0849398 78.7551C-0.00865905 79.8567 0.647849 80.9589 1.77364 81.1422C6.18388 82.0606 10.8756 82.5191 15.6611 82.5191C17.6319 82.5191 19.6021 82.4276 21.4787 82.2437L22.4173 74.5313C22.8866 70.5836 24.951 67.0944 27.9534 64.7067C25.9832 62.3196 22.8866 60.7589 19.5086 60.7589L19.5083 60.7588Z" fill="white"/>
<path d="M77.6858 48.0879C77.6858 53.6151 73.106 58.0957 67.4573 58.0957C61.8086 58.0957 57.2294 53.6151 57.2294 48.0879C57.2294 42.5607 61.8086 38.0801 67.4573 38.0801C73.106 38.0801 77.6858 42.5607 77.6858 48.0879Z" fill="white"/>
<path d="M82.0022 70.1242C81.345 64.7989 76.7476 60.7588 71.2115 60.7588H63.611C60.233 60.7588 57.1362 62.3196 55.1662 64.7989C58.1693 67.1859 60.233 70.6751 60.7023 74.6235L61.6409 82.3359C63.5175 82.5198 65.4883 82.6113 67.4585 82.6113C72.3381 82.6113 76.9357 82.1521 81.346 81.2344C82.4718 80.959 83.2225 79.949 83.0347 78.8473L82.0022 70.1242Z" fill="white"/>
<path d="M45.3128 65.8081H37.8065C32.2704 65.8081 27.6723 69.8482 27.0158 75.1735L25.9836 83.8044C25.89 84.906 26.5465 86.0082 27.6723 86.1915C32.0826 87.1099 36.6808 87.5685 41.5597 87.5685C46.4393 87.5685 51.1311 87.1093 55.4472 86.1915C56.573 85.9161 57.3237 84.9061 57.1359 83.8044L56.1036 75.1735C55.4471 69.8482 50.8497 65.8081 45.3129 65.8081H45.3128Z" fill="white"/>
<path d="M51.7876 53.1379C51.7876 58.665 47.2084 63.1457 41.5597 63.1457C35.911 63.1457 31.3319 58.665 31.3319 53.1379C31.3319 47.6107 35.911 43.1294 41.5597 43.1294C47.2084 43.1294 51.7876 47.6107 51.7876 53.1379Z" fill="white"/>
</g>
<defs>
<clipPath id="clip0_2_3533">
<rect width="83.1111" height="87.2255" fill="white" transform="translate(0.00402832 0.435059)"/>
</clipPath>
</defs>
</svg>
