<svg width="18" height="18" viewBox="0 0 18 18" fill="none" xmlns="http://www.w3.org/2000/svg">
<g opacity="0.3" clip-path="url(#clip0_220_98)">
<path fill-rule="evenodd" clip-rule="evenodd" d="M5.56095 0.598755H11.8154C12.4754 0.598755 13.0002 0.598755 13.4234 0.633359C13.857 0.66888 14.2267 0.742901 14.5651 0.915234C15.1118 1.19373 15.5562 1.63817 15.8347 2.18482C16.0071 2.5233 16.0813 2.89294 16.1166 3.32653C16.1512 3.75003 16.1512 4.27482 16.1512 4.93459V7.73959C16.1484 7.86616 16.0962 7.98662 16.0057 8.07516C15.9152 8.1637 15.7937 8.21328 15.6671 8.21328C15.5405 8.21328 15.4189 8.1637 15.3284 8.07516C15.2379 7.98662 15.1857 7.86616 15.183 7.73959V4.9559C15.183 4.27001 15.1825 3.78486 15.1516 3.40536C15.1211 3.03182 15.0633 2.80357 14.9719 2.62436C14.7862 2.25997 14.49 1.96372 14.1256 1.77805C13.9464 1.68684 13.7184 1.62909 13.3446 1.59838C12.9653 1.56744 12.4799 1.56698 11.7943 1.56698H5.58226C4.89636 1.56698 4.41122 1.56744 4.03172 1.59838C3.65817 1.62886 3.42993 1.68684 3.25072 1.77805C2.88632 1.96371 2.59006 2.25997 2.4044 2.62436C2.31297 2.80357 2.25545 3.03182 2.22474 3.40536C2.1938 3.78486 2.19334 4.27001 2.19334 4.9559V12.9437C2.19334 13.6296 2.1938 14.1148 2.22474 14.494C2.25522 14.8678 2.31297 15.0958 2.4044 15.2753C2.59006 15.6397 2.88632 15.9359 3.25072 16.1216C3.42993 16.2128 3.65795 16.2705 4.03172 16.3013C4.41099 16.3322 4.89636 16.3327 5.58226 16.3327H11.0763C11.2029 16.3354 11.3233 16.3876 11.4119 16.4781C11.5004 16.5686 11.55 16.6902 11.55 16.8168C11.55 16.9434 11.5004 17.0649 11.4119 17.1554C11.3233 17.2459 11.2029 17.2981 11.0763 17.3009H5.56095C4.90095 17.3009 4.37615 17.3009 3.95288 17.2663C3.5193 17.2308 3.14965 17.1567 2.81117 16.9844C2.26452 16.7059 1.82009 16.2615 1.54159 15.7148C1.36926 15.3763 1.29524 15.0067 1.25972 14.5729C1.22511 14.1496 1.22534 13.6248 1.22534 12.965V4.93459C1.22534 4.27482 1.22511 3.7498 1.25972 3.32653C1.29524 2.89294 1.36926 2.5233 1.54159 2.18482C1.82009 1.63817 2.26452 1.19373 2.81117 0.915234C3.14965 0.742901 3.5193 0.66888 3.95288 0.633359C4.37638 0.598984 4.90118 0.598755 5.56095 0.598755Z" fill="white"/>
<path fill-rule="evenodd" clip-rule="evenodd" d="M4.41238 4.67126C4.41238 4.40382 4.62917 4.18726 4.89638 4.18726H12.499C12.6256 4.19001 12.746 4.24222 12.8346 4.33271C12.9231 4.4232 12.9727 4.54477 12.9727 4.67137C12.9727 4.79797 12.9231 4.91954 12.8346 5.01003C12.746 5.10052 12.6256 5.15273 12.499 5.15549H4.89638C4.76799 5.15542 4.64488 5.10438 4.55412 5.01358C4.46336 4.92277 4.41238 4.79964 4.41238 4.67126ZM4.39359 7.40476C4.39359 7.13732 4.61038 6.92076 4.87759 6.92076H12.4802C12.606 6.92463 12.7253 6.97732 12.8129 7.06766C12.9005 7.15801 12.9495 7.27891 12.9495 7.40476C12.9495 7.5306 12.9005 7.65151 12.8129 7.74185C12.7253 7.8322 12.606 7.88489 12.4802 7.88876H4.87736C4.74901 7.8887 4.62594 7.83768 4.53518 7.74693C4.44443 7.65617 4.39365 7.5331 4.39359 7.40476ZM4.39313 10.16C4.39313 9.89259 4.60992 9.67603 4.87736 9.67603H7.91198C8.03855 9.67878 8.15901 9.731 8.24755 9.82148C8.3361 9.91197 8.38568 10.0335 8.38568 10.1601C8.38568 10.2867 8.3361 10.4083 8.24755 10.4988C8.15901 10.5893 8.03855 10.6415 7.91198 10.6443H4.87736C4.74897 10.6442 4.62586 10.5932 4.5351 10.5023C4.44434 10.4115 4.39336 10.2884 4.39336 10.16H4.39313ZM13.7179 10.9342C13.16 10.9342 12.6249 11.1558 12.2303 11.5503C11.8358 11.9449 11.6142 12.48 11.6142 13.0379C11.6142 13.5959 11.8358 14.1309 12.2303 14.5255C12.6249 14.92 13.16 15.1417 13.7179 15.1417C14.2718 15.1426 14.8036 14.9241 15.197 14.5341C15.3953 14.3387 15.5527 14.1057 15.66 13.8488C15.7673 13.5919 15.8224 13.3161 15.8219 13.0377C15.8219 12.4797 15.6003 11.9446 15.2057 11.5501C14.8112 11.1556 14.2761 10.9339 13.7181 10.9339L13.7179 10.9342ZM10.6459 13.0379C10.6459 11.3412 12.0212 9.96569 13.7179 9.96569C15.4147 9.96569 16.7901 11.3412 16.7901 13.0379C16.7901 13.7172 16.5692 14.3455 16.1959 14.854L17.3782 16.0437C17.423 16.0887 17.4585 16.1422 17.4827 16.2011C17.5068 16.2599 17.5191 16.3229 17.519 16.3865C17.5188 16.45 17.5061 16.513 17.4815 16.5716C17.457 16.6303 17.4212 16.6836 17.3761 16.7284C17.331 16.7732 17.2775 16.8087 17.2187 16.8329C17.1599 16.857 17.0969 16.8694 17.0333 16.8692C16.9697 16.869 16.9068 16.8563 16.8481 16.8318C16.7895 16.8073 16.7362 16.7714 16.6914 16.7263L15.5075 15.5351C14.986 15.9097 14.36 16.1108 13.7179 16.1099C12.0212 16.1099 10.6459 14.7344 10.6459 13.0379Z" fill="white"/>
</g>
<defs>
<clipPath id="clip0_220_98">
<rect width="17" height="18" fill="white" transform="translate(0.611938)"/>
</clipPath>
</defs>
</svg>
