<svg width="46" height="45" viewBox="0 0 46 45" fill="none" xmlns="http://www.w3.org/2000/svg">
<path d="M35.0612 0.097168C35.3998 0.0972223 35.7283 0.212326 35.993 0.423605C36.2576 0.634884 36.4425 0.929801 36.5175 1.26L37.3443 4.89413C37.5316 5.71777 37.9479 6.47169 38.5452 7.06896C39.1424 7.66624 39.8964 8.08253 40.72 8.26985L44.3549 9.09661C44.6849 9.17182 44.9796 9.35687 45.1906 9.62146C45.4017 9.88605 45.5167 10.2145 45.5167 10.5529C45.5167 10.8914 45.4017 11.2198 45.1906 11.4844C44.9796 11.749 44.6849 11.9341 44.3549 12.0093L40.72 12.836C39.8964 13.0234 39.1424 13.4397 38.5452 14.0369C37.9479 14.6342 37.5316 15.3881 37.3443 16.2118L36.5175 19.8459C36.4423 20.1759 36.2573 20.4706 35.9927 20.6817C35.7281 20.8927 35.3997 21.0077 35.0612 21.0077C34.7227 21.0077 34.3943 20.8927 34.1297 20.6817C33.8651 20.4706 33.6801 20.1759 33.6048 19.8459L32.7781 16.2118C32.5908 15.3881 32.1745 14.6342 31.5772 14.0369C30.9799 13.4397 30.226 13.0234 29.4024 12.836L25.7675 12.0093C25.4375 11.9341 25.1428 11.749 24.9317 11.4844C24.7207 11.2198 24.6057 10.8914 24.6057 10.5529C24.6057 10.2145 24.7207 9.88605 24.9317 9.62146C25.1428 9.35687 25.4375 9.17182 25.7675 9.09661L29.4024 8.26985C30.226 8.08253 30.9799 7.66624 31.5772 7.06896C32.1745 6.47169 32.5908 5.71777 32.7781 4.89413L33.6048 1.26C33.6798 0.929801 33.8648 0.634884 34.1294 0.423605C34.394 0.212326 34.7226 0.0972223 35.0612 0.097168Z" fill="#CDFF09"/>
<path fill-rule="evenodd" clip-rule="evenodd" d="M35.0612 23.2493C36.0396 23.2493 36.9448 22.8699 37.6192 22.2359C37.9055 23.5502 38.0495 24.8916 38.0486 26.2367C38.0486 36.5483 29.6892 44.9077 19.3776 44.9077C9.06594 44.9077 0.706543 36.5483 0.706543 26.2367C0.706543 15.9251 9.06594 7.56567 19.3776 7.56567C20.751 7.56567 22.0894 7.7143 23.3784 7.99511C22.9279 8.47443 22.612 9.06424 22.4627 9.70488C22.3133 10.3455 22.3359 11.0142 22.528 11.6433C22.7202 12.2725 23.0751 12.8397 23.5569 13.2875C24.0387 13.7354 24.6302 14.0481 25.2716 14.1939L28.9058 15.0206C29.3176 15.1143 29.6946 15.3225 29.9932 15.6211C30.2918 15.9197 30.5 16.2967 30.5936 16.7085L31.4204 20.3434C31.6081 21.1687 32.0706 21.9057 32.7321 22.4337C33.3936 22.9617 34.2149 23.2493 35.0612 23.2493ZM10.4155 24.743C10.0193 24.743 9.63941 24.9004 9.35929 25.1805C9.07917 25.4606 8.9218 25.8406 8.9218 26.2367C8.9218 26.6329 9.07917 27.0128 9.35929 27.2929C9.63941 27.573 10.0193 27.7304 10.4155 27.7304H17.8839V35.1988C17.8839 35.595 18.0413 35.9749 18.3214 36.255C18.6015 36.5351 18.9814 36.6925 19.3776 36.6925C19.7737 36.6925 20.1537 36.5351 20.4338 36.255C20.7139 35.9749 20.8713 35.595 20.8713 35.1988V27.7304H28.3397C28.7358 27.7304 29.1157 27.573 29.3959 27.2929C29.676 27.0128 29.8334 26.6329 29.8334 26.2367C29.8334 25.8406 29.676 25.4606 29.3959 25.1805C29.1157 24.9004 28.7358 24.743 28.3397 24.743H20.8713V17.2746C20.8713 16.8785 20.7139 16.4985 20.4338 16.2184C20.1537 15.9383 19.7737 15.7809 19.3776 15.7809C18.9814 15.7809 18.6015 15.9383 18.3214 16.2184C18.0413 16.4985 17.8839 16.8785 17.8839 17.2746V24.743H10.4155Z" fill="#CDFF09"/>
</svg>
