<svg width="18" height="18" viewBox="0 0 18 18" fill="none" xmlns="http://www.w3.org/2000/svg">
<g opacity="0.3">
<path fill-rule="evenodd" clip-rule="evenodd" d="M13.0963 1.03125C13.2167 1.03127 13.3336 1.07221 13.4277 1.14735C13.5218 1.2225 13.5876 1.32739 13.6143 1.44483L13.9083 2.73736C13.9749 3.0303 14.123 3.29844 14.3354 3.51087C14.5479 3.7233 14.816 3.87136 15.1089 3.93798L16.4017 4.23203C16.5191 4.25878 16.6239 4.3246 16.699 4.4187C16.7741 4.51281 16.8149 4.62962 16.8149 4.75C16.8149 4.87038 16.7741 4.98719 16.699 5.0813C16.6239 5.1754 16.5191 5.24122 16.4017 5.26797L15.1089 5.56202C14.816 5.62864 14.5479 5.7767 14.3354 5.98913C14.123 6.20156 13.9749 6.4697 13.9083 6.76264L13.6143 8.05517C13.5875 8.17254 13.5217 8.27735 13.4276 8.35242C13.3335 8.42749 13.2167 8.46838 13.0963 8.46838C12.9759 8.46838 12.8591 8.42749 12.765 8.35242C12.6709 8.27735 12.6051 8.17254 12.5783 8.05517L12.2843 6.76264C12.2177 6.4697 12.0696 6.20156 11.8572 5.98913C11.6447 5.7767 11.3766 5.62864 11.0837 5.56202L9.79087 5.26797C9.67349 5.24122 9.56869 5.1754 9.49362 5.0813C9.41855 4.98719 9.37766 4.87038 9.37766 4.75C9.37766 4.62962 9.41855 4.51281 9.49362 4.4187C9.56869 4.3246 9.67349 4.25878 9.79087 4.23203L11.0837 3.93798C11.3766 3.87136 11.6447 3.7233 11.8572 3.51087C12.0696 3.29844 12.2177 3.0303 12.2843 2.73736L12.5783 1.44483C12.605 1.32739 12.6708 1.2225 12.7649 1.14735C12.859 1.07221 12.9759 1.03127 13.0963 1.03125ZM13.0963 3.59134C12.8417 4.08994 12.4362 4.49543 11.9376 4.75C12.4362 5.00457 12.8417 5.41006 13.0963 5.90866C13.3509 5.41006 13.7564 5.00457 14.255 4.75C13.7564 4.49543 13.3509 4.08994 13.0963 3.59134ZM9.95874 6.60938C9.57128 6.60938 9.19968 6.76329 8.9257 7.03727C8.65172 7.31125 8.4978 7.68285 8.4978 8.07031C8.4978 8.45778 8.65172 8.82937 8.9257 9.10335C9.19968 9.37733 9.57128 9.53125 9.95874 9.53125C10.3462 9.53125 10.7178 9.37733 10.9918 9.10335C11.2658 8.82937 11.4197 8.45778 11.4197 8.07031C11.4197 7.68285 11.2658 7.31125 10.9918 7.03727C10.7178 6.76329 10.3462 6.60938 9.95874 6.60938ZM9.52843 8.07031C9.52843 7.84506 9.7141 7.64983 9.95874 7.64983C10.2034 7.64983 10.3891 7.84506 10.3891 8.07031C10.3891 8.29556 10.2034 8.4908 9.95874 8.4908C9.7141 8.4908 9.52843 8.29556 9.52843 8.07031Z" fill="white"/>
<path fill-rule="evenodd" clip-rule="evenodd" d="M8.69145 4.21875H3.53381C2.97023 4.21875 2.42973 4.44263 2.03121 4.84115C1.6327 5.23966 1.40881 5.78016 1.40881 6.34375V14.8438C1.40881 15.4073 1.6327 15.9478 2.03121 16.3464C2.42973 16.7449 2.97023 16.9688 3.53381 16.9688H11.5026C12.0661 16.9688 12.6067 16.7449 13.0052 16.3464C13.4037 15.9478 13.6276 15.4073 13.6276 14.8438V9.15486C13.4639 9.22658 13.2838 9.26562 13.0963 9.26562C12.9088 9.26562 12.7287 9.22631 12.5651 9.15486V11.7638C11.3373 11.461 10.0063 11.6403 8.87713 12.3628C8.62715 12.1494 8.36286 11.9533 8.08609 11.776C7.84438 11.6209 7.52695 11.7118 7.38325 11.9607C7.2337 12.2196 7.32933 12.549 7.57902 12.7134C8.7305 13.4724 9.5927 14.5971 10.0265 15.9062H3.53381C3.25202 15.9062 2.98177 15.7943 2.78251 15.5951C2.58326 15.3958 2.47131 15.1255 2.47131 14.8438V11.9458C2.5178 11.9458 2.56481 11.9397 2.61183 11.9269C3.4556 11.694 4.3397 11.6458 5.2038 11.7856C5.4402 11.8241 5.68086 11.7219 5.80039 11.5147C5.97783 11.2071 5.81766 10.814 5.46783 10.7523C4.47227 10.5773 3.45088 10.6157 2.47131 10.8652V6.34375C2.47131 6.06196 2.58326 5.79171 2.78251 5.59245C2.98177 5.39319 3.25202 5.28125 3.53381 5.28125H8.69145C8.61974 5.11762 8.58069 4.93753 8.58069 4.75C8.58069 4.56247 8.62 4.38238 8.69145 4.21875ZM11.5026 15.9062H11.1379C10.8524 14.8853 10.3459 13.9397 9.65434 13.1363C10.5601 12.6369 11.6101 12.5599 12.5651 12.8678V14.8438C12.5651 15.1255 12.4531 15.3958 12.2539 15.5951C12.0546 15.7943 11.7844 15.9062 11.5026 15.9062Z" fill="white"/>
</g>
</svg>
