<svg width="19" height="18" viewBox="0 0 19 18" fill="none" xmlns="http://www.w3.org/2000/svg">
<g opacity="0.3" clip-path="url(#clip0_2_4091)">
<path d="M7.61195 1.63336C6.36593 1.63336 5.14789 1.98232 4.11186 2.63612C3.07583 3.28991 2.26834 4.21918 1.79151 5.3064C1.31468 6.39362 1.18992 7.58996 1.43301 8.74415C1.67609 9.89834 2.27611 10.9585 3.15718 11.7906C4.03825 12.6228 5.1608 13.1895 6.38288 13.419C7.60497 13.6486 8.87168 13.5308 10.0229 13.0804C11.174 12.6301 12.158 11.8675 12.8502 10.889C13.5425 9.91053 13.912 8.76016 13.912 7.58336C13.91 6.00588 13.2457 4.49352 12.0646 3.37806C10.8836 2.26261 9.28223 1.63516 7.61195 1.63336ZM7.61195 12.9667C6.4846 12.9667 5.38256 12.651 4.4452 12.0594C3.50784 11.4679 2.77726 10.6271 2.34584 9.64347C1.91442 8.6598 1.80154 7.57739 2.02148 6.53313C2.24141 5.48886 2.78429 4.52964 3.58144 3.77677C4.3786 3.0239 5.39425 2.51118 6.49994 2.30347C7.60563 2.09575 8.75171 2.20236 9.79325 2.60981C10.8348 3.01726 11.725 3.70726 12.3513 4.59254C12.9777 5.47783 13.312 6.51864 13.312 7.58336C13.3103 9.01063 12.7092 10.379 11.6406 11.3882C10.572 12.3974 9.12318 12.9651 7.61195 12.9667Z" fill="white"/>
<path d="M17.6724 15.0818L15.6711 13.1914C15.4169 12.9526 15.0797 12.8088 14.7219 12.7865L13.6518 11.7767C14.7738 10.3361 15.2781 8.54832 15.0638 6.77146C14.8496 4.99459 13.9325 3.35977 12.4962 2.19434C11.0599 1.02892 9.21055 0.418926 7.31835 0.486517C5.42615 0.554109 3.63083 1.29429 2.29189 2.55885C0.952946 3.82341 0.169223 5.51899 0.0976556 7.30606C0.0260885 9.09314 0.67196 10.8398 1.90594 12.1963C3.13992 13.5527 4.87091 14.4189 6.7523 14.6213C8.63369 14.8236 10.5266 14.3473 12.0519 13.2877L13.1211 14.2983C13.1446 14.6364 13.2969 14.9549 13.5498 15.1951L15.5511 17.0855C15.6898 17.2198 15.8552 17.3268 16.038 17.4002C16.2207 17.4736 16.417 17.512 16.6156 17.5132C16.8142 17.5144 17.0111 17.4784 17.1948 17.4072C17.3785 17.336 17.5454 17.231 17.6858 17.0984C17.8263 16.9658 17.9374 16.8082 18.0128 16.6347C18.0883 16.4612 18.1264 16.2753 18.1252 16.0877C18.124 15.9002 18.0833 15.7147 18.0056 15.5421C17.9279 15.3696 17.8146 15.2133 17.6724 15.0823V15.0818ZM0.711943 7.58334C0.711943 6.29447 1.11662 5.03454 1.8748 3.96288C2.63298 2.89122 3.71062 2.05596 4.97143 1.56273C6.23224 1.0695 7.6196 0.940446 8.95807 1.19189C10.2965 1.44334 11.526 2.06399 12.491 2.97536C13.456 3.88674 14.1131 5.0479 14.3794 6.31201C14.6456 7.57611 14.509 8.8864 13.9867 10.0772C13.4645 11.2679 12.5801 12.2857 11.4454 13.0018C10.3107 13.7178 8.97663 14.1 7.61194 14.1C5.78256 14.0981 4.02867 13.411 2.7351 12.1893C1.44153 10.9675 0.713928 9.3111 0.711943 7.58334ZM13.2738 12.2207L13.9965 12.9035C13.6612 13.0423 13.3935 13.2951 13.2465 13.6118L12.5235 12.9293C12.791 12.71 13.0417 12.4732 13.2738 12.2207ZM17.2479 16.6843C17.0767 16.8391 16.8488 16.9255 16.6118 16.9255C16.3748 16.9255 16.1469 16.8391 15.9756 16.6843L13.974 14.7939C13.8101 14.6336 13.7194 14.4189 13.7214 14.196C13.7235 13.9731 13.8181 13.7599 13.985 13.6023C14.1519 13.4448 14.3776 13.3554 14.6136 13.3534C14.8496 13.3515 15.0769 13.4372 15.2466 13.592L17.2482 15.4824C17.4147 15.6429 17.5079 15.8587 17.5078 16.0834C17.5078 16.3081 17.4145 16.5238 17.2479 16.6843Z" fill="white"/>
<path d="M5.75195 5.71336C5.72831 5.68359 5.6987 5.65851 5.6648 5.63956C5.6309 5.6206 5.59338 5.60813 5.55438 5.60287C5.51538 5.59761 5.47566 5.59965 5.4375 5.60889C5.39933 5.61812 5.36347 5.63436 5.33195 5.65669L2.93195 7.35669C2.89469 7.38308 2.86445 7.4173 2.84362 7.45665C2.82279 7.49599 2.81195 7.53937 2.81195 7.58336C2.81195 7.62734 2.82279 7.67072 2.84362 7.71007C2.86445 7.74941 2.89469 7.78363 2.93195 7.81002L5.33195 9.51002C5.36347 9.53235 5.39933 9.54859 5.4375 9.55783C5.47566 9.56706 5.51538 9.5691 5.55438 9.56384C5.59338 9.55858 5.6309 9.54611 5.6648 9.52716C5.6987 9.5082 5.72831 9.48312 5.75195 9.45336C5.77559 9.42359 5.79279 9.38972 5.80256 9.35367C5.81234 9.31763 5.81451 9.28012 5.80894 9.24329C5.80336 9.20645 5.79017 9.17102 5.77009 9.139C5.75002 9.10698 5.72347 9.07902 5.69195 9.05669L3.61205 7.58336L5.69195 6.11002C5.72347 6.0877 5.75002 6.05973 5.77009 6.02771C5.79017 5.9957 5.80336 5.96026 5.80894 5.92343C5.81451 5.88659 5.81234 5.84908 5.80256 5.81304C5.79279 5.77699 5.77559 5.74312 5.75195 5.71336ZM12.292 7.35669L9.89195 5.65669C9.86043 5.63436 9.82457 5.61812 9.78641 5.60889C9.74824 5.59965 9.70852 5.59761 9.66952 5.60287C9.63052 5.60813 9.593 5.6206 9.5591 5.63956C9.5252 5.65851 9.49559 5.68359 9.47195 5.71336C9.44831 5.74312 9.43111 5.77699 9.42134 5.81304C9.41156 5.84908 9.40939 5.88659 9.41497 5.92343C9.42054 5.96026 9.43374 5.9957 9.45381 6.02771C9.47388 6.05973 9.50043 6.0877 9.53195 6.11002L11.6119 7.58336L9.53195 9.05669C9.4683 9.10178 9.42622 9.1689 9.41497 9.24329C9.40371 9.31768 9.42421 9.39324 9.47195 9.45336C9.51969 9.51347 9.59076 9.55322 9.66952 9.56384C9.74829 9.57447 9.8283 9.55511 9.89195 9.51002L12.292 7.81002C12.3292 7.78363 12.3595 7.74941 12.3803 7.71007C12.4011 7.67072 12.412 7.62734 12.412 7.58336C12.412 7.53937 12.4011 7.49599 12.3803 7.45665C12.3595 7.4173 12.3292 7.38308 12.292 7.35669ZM8.28455 5.04186C8.20737 5.02369 8.12572 5.03522 8.05754 5.0739C7.98935 5.11258 7.94023 5.17524 7.92095 5.24812L6.72095 9.78146C6.70172 9.85435 6.71392 9.93147 6.75488 9.99586C6.79583 10.0603 6.86218 10.1067 6.93935 10.1249C6.9631 10.1304 6.98748 10.1333 7.01195 10.1334C7.07882 10.1333 7.14374 10.1121 7.19641 10.0732C7.24908 10.0343 7.28647 9.97987 7.30265 9.91859L8.50265 5.38526C8.52189 5.31241 8.50973 5.23532 8.46884 5.17093C8.42794 5.10655 8.36166 5.06012 8.28455 5.04186Z" fill="white"/>
</g>
<defs>
<clipPath id="clip0_2_4091">
<rect width="18" height="17" fill="white" transform="translate(0.111938 0.5)"/>
</clipPath>
</defs>
</svg>
