<svg width="19" height="20" viewBox="0 0 19 20" fill="none" xmlns="http://www.w3.org/2000/svg">
<g opacity="0.3" clip-path="url(#clip0_220_157)">
<path d="M16.9819 7.56043C16.942 7.45872 16.8744 7.37178 16.7877 7.31061C16.701 7.24945 16.599 7.2168 16.4947 7.2168H1.72912C1.62482 7.2168 1.52286 7.24945 1.43614 7.31061C1.34942 7.37178 1.28183 7.45872 1.24192 7.56043C1.20201 7.66215 1.19157 7.77407 1.21192 7.88205C1.23227 7.99003 1.2825 8.08921 1.35625 8.16706L7.5299 14.6837V17.8301C7.5299 18.0409 7.64275 18.2336 7.82142 18.328L9.93079 19.4413C10.0112 19.4837 10.1005 19.5037 10.1903 19.4995C10.2801 19.4952 10.3674 19.4668 10.4439 19.4169C10.5204 19.367 10.5835 19.2973 10.6272 19.2144C10.671 19.1316 10.694 19.0382 10.694 18.9434V14.6837L16.8676 8.16706C16.9414 8.08921 16.9916 7.99003 17.0119 7.88205C17.0323 7.77407 17.0219 7.66214 16.9819 7.56043ZM9.63928 18.0427L8.58459 17.486V15.0098H9.63928V18.0427ZM9.94819 13.8965H8.27567L5.11161 10.5566H13.1123L9.94819 13.8965ZM14.1669 9.44336H4.05692L3.00223 8.33008H15.2216L14.1669 9.44336ZM4.89318 2.76367C4.02085 2.76367 3.31115 3.5128 3.31115 4.43359C3.31115 5.35439 4.02085 6.10352 4.89318 6.10352C5.76551 6.10352 6.47521 5.35439 6.47521 4.43359C6.47521 3.5128 5.76551 2.76367 4.89318 2.76367ZM4.89318 4.99023C4.6024 4.99023 4.36584 4.74053 4.36584 4.43359C4.36584 4.12666 4.6024 3.87695 4.89318 3.87695C5.18396 3.87695 5.42053 4.12666 5.42053 4.43359C5.42053 4.74053 5.18396 4.99023 4.89318 4.99023ZM13.858 3.87695C13.2765 3.87695 12.8033 4.37637 12.8033 4.99023C12.8033 5.6041 13.2765 6.10352 13.858 6.10352C14.4396 6.10352 14.9127 5.6041 14.9127 4.99023C14.9127 4.37637 14.4396 3.87695 13.858 3.87695ZM9.63928 0.5C8.47617 0.5 7.5299 1.49884 7.5299 2.72656C7.5299 3.95429 8.47617 4.95312 9.63928 4.95312C10.8024 4.95312 11.7487 3.95429 11.7487 2.72656C11.7487 1.49884 10.8024 0.5 9.63928 0.5ZM9.63928 3.83984C9.05772 3.83984 8.58459 3.34043 8.58459 2.72656C8.58459 2.1127 9.05772 1.61328 9.63928 1.61328C10.2208 1.61328 10.694 2.1127 10.694 2.72656C10.694 3.34043 10.2208 3.83984 9.63928 3.83984Z" fill="white"/>
</g>
<defs>
<clipPath id="clip0_220_157">
<rect width="18" height="19" fill="white" transform="translate(0.111938 0.5)"/>
</clipPath>
</defs>
</svg>
