<svg width="15" height="14" viewBox="0 0 15 14" fill="none" xmlns="http://www.w3.org/2000/svg">
<path d="M4.64747 10.8995L10.158 5.38899V9.13171C10.1572 9.19783 10.1696 9.26345 10.1944 9.32476C10.2192 9.38606 10.2559 9.44184 10.3024 9.48886C10.3489 9.53588 10.4043 9.5732 10.4653 9.59868C10.5264 9.62415 10.5918 9.63726 10.658 9.63726C10.7241 9.63725 10.7896 9.62413 10.8506 9.59864C10.9116 9.57316 10.967 9.53582 11.0135 9.4888C11.06 9.44177 11.0967 9.38598 11.1215 9.32467C11.1463 9.26336 11.1586 9.19775 11.1579 9.13162V4.18187C11.1579 4.04929 11.1052 3.92214 11.0114 3.82839C10.9177 3.73464 10.7906 3.68197 10.658 3.68195L5.70822 3.68195C5.64253 3.68186 5.57748 3.69476 5.51679 3.71989C5.4561 3.74502 5.40097 3.7819 5.35458 3.82841C5.28468 3.89834 5.23708 3.98742 5.2178 4.0844C5.19853 4.18138 5.20843 4.28189 5.24627 4.37324C5.28411 4.46459 5.34819 4.54266 5.4304 4.5976C5.51261 4.65254 5.60926 4.68187 5.70813 4.68188L9.45085 4.68188L3.94037 10.1924C3.8466 10.2861 3.79392 10.4133 3.79392 10.5459C3.79392 10.6785 3.8466 10.8057 3.94037 10.8995C4.03413 10.9932 4.16131 11.0459 4.29392 11.0459C4.42653 11.0459 4.5537 10.9932 4.64747 10.8995Z" fill="#737780"/>
</svg>
