<svg width="33" height="32" viewBox="0 0 33 32" fill="none" xmlns="http://www.w3.org/2000/svg">
<path d="M15.6859 17.974C15.6601 18.0025 15.6361 18.0326 15.6139 18.064C15.5912 18.0974 15.5731 18.1338 15.5599 18.172C15.5426 18.206 15.5305 18.2424 15.5239 18.28C15.521 18.3199 15.521 18.3601 15.5239 18.4C15.5219 18.4787 15.5384 18.5568 15.5719 18.628C15.5989 18.7025 15.6419 18.7701 15.6979 18.8261C15.7539 18.8821 15.8215 18.9251 15.8959 18.952C15.9678 18.9837 16.0454 19.0001 16.1239 19.0001C16.2025 19.0001 16.2801 18.9837 16.3519 18.952C16.4264 18.9251 16.494 18.8821 16.55 18.8261C16.606 18.7701 16.649 18.7025 16.6759 18.628C16.7026 18.555 16.7148 18.4776 16.7119 18.4C16.7124 18.321 16.6973 18.2428 16.6674 18.1697C16.6375 18.0966 16.5935 18.0301 16.5379 17.974C16.4822 17.9178 16.4158 17.8731 16.3427 17.8427C16.2696 17.8122 16.1911 17.7965 16.1119 17.7965C16.0327 17.7965 15.9543 17.8122 15.8812 17.8427C15.8081 17.8731 15.7417 17.9178 15.6859 17.974ZM16.1119 10C14.9253 10 13.7652 10.3519 12.7785 11.0112C11.7918 11.6705 11.0228 12.6075 10.5687 13.7039C10.1145 14.8003 9.99572 16.0067 10.2272 17.1705C10.4587 18.3344 11.0302 19.4035 11.8693 20.2426C12.7084 21.0818 13.7775 21.6532 14.9414 21.8847C16.1053 22.1162 17.3117 21.9974 18.408 21.5433C19.5044 21.0892 20.4415 20.3201 21.1008 19.3334C21.76 18.3467 22.1119 17.1867 22.1119 16C22.1119 15.2121 21.9567 14.4319 21.6552 13.7039C21.3537 12.9759 20.9117 12.3145 20.3546 11.7574C19.7974 11.2002 19.136 10.7583 18.408 10.4567C17.6801 10.1552 16.8999 10 16.1119 10ZM16.1119 20.8C15.1626 20.8 14.2346 20.5185 13.4452 19.9911C12.6558 19.4636 12.0406 18.714 11.6773 17.8369C11.314 16.9598 11.219 15.9947 11.4042 15.0636C11.5894 14.1325 12.0465 13.2772 12.7178 12.6059C13.3891 11.9346 14.2444 11.4774 15.1755 11.2922C16.1066 11.107 17.0717 11.2021 17.9488 11.5654C18.8259 11.9287 19.5756 12.5439 20.103 13.3333C20.6304 14.1226 20.9119 15.0506 20.9119 16C20.9119 17.273 20.4062 18.4939 19.5061 19.3941C18.6059 20.2943 17.385 20.8 16.1119 20.8ZM16.1119 13C15.7958 12.9998 15.4851 13.0829 15.2113 13.2409C14.9374 13.3989 14.71 13.6262 14.5519 13.9C14.5085 13.9683 14.4794 14.0447 14.4662 14.1245C14.4531 14.2044 14.4563 14.286 14.4755 14.3646C14.4948 14.4432 14.5297 14.5171 14.5783 14.5819C14.6268 14.6466 14.688 14.7008 14.758 14.7413C14.8281 14.7818 14.9056 14.8077 14.9859 14.8175C15.0663 14.8273 15.1477 14.8207 15.2255 14.7981C15.3032 14.7756 15.3755 14.7375 15.4382 14.6863C15.5008 14.6351 15.5524 14.5717 15.5899 14.5C15.6428 14.4084 15.7189 14.3325 15.8106 14.2798C15.9023 14.2271 16.0062 14.1996 16.1119 14.2C16.2711 14.2 16.4237 14.2632 16.5362 14.3757C16.6487 14.4883 16.7119 14.6409 16.7119 14.8C16.7119 14.9591 16.6487 15.1117 16.5362 15.2243C16.4237 15.3368 16.2711 15.4 16.1119 15.4C15.9528 15.4 15.8002 15.4632 15.6877 15.5757C15.5752 15.6883 15.5119 15.8409 15.5119 16V16.6C15.5119 16.7591 15.5752 16.9117 15.6877 17.0243C15.8002 17.1368 15.9528 17.2 16.1119 17.2C16.2711 17.2 16.4237 17.1368 16.5362 17.0243C16.6487 16.9117 16.7119 16.7591 16.7119 16.6V16.492C17.1088 16.348 17.4424 16.0691 17.6544 15.7041C17.8665 15.3391 17.9435 14.9112 17.872 14.4951C17.8005 14.0791 17.5851 13.7014 17.2633 13.4281C16.9416 13.1548 16.5341 13.0033 16.1119 13Z" fill="#D2D3D6"/>
</svg>
