<svg width="25" height="24" viewBox="0 0 25 24" fill="none" xmlns="http://www.w3.org/2000/svg">
<path d="M12.6119 2.0083C7.0977 2.0083 2.61192 6.49408 2.61192 12.0083C2.61192 17.5225 7.0977 22.0083 12.6119 22.0083C18.1261 22.0083 22.6119 17.5225 22.6119 12.0083C22.6119 6.49408 18.1261 2.0083 12.6119 2.0083ZM17.6803 9.88916L12.2636 15.3057C12.1011 15.4682 11.8877 15.55 11.6744 15.55C11.4611 15.55 11.2478 15.4682 11.0853 15.3057L8.377 12.5974C8.05106 12.2717 8.05106 11.7449 8.377 11.4192C8.70278 11.0932 9.22935 11.0932 9.55528 11.4192L11.6744 13.5383L16.502 8.71088C16.8278 8.38494 17.3543 8.38494 17.6803 8.71088C18.0061 9.03666 18.0061 9.56322 17.6803 9.88916Z" fill="#CDFF09"/>
</svg>
