<svg width="33" height="32" viewBox="0 0 33 32" fill="none" xmlns="http://www.w3.org/2000/svg">
<path d="M21.9894 16.3052L20.2749 18.0198L19.6662 17.4111L20.6521 16.4295H18.256C17.915 16.4295 17.5879 16.294 17.3467 16.0529C17.1056 15.8117 16.9701 15.4847 16.9701 15.1436V11.2859C16.9701 11.1722 16.9249 11.0632 16.8446 10.9828C16.7642 10.9024 16.6551 10.8573 16.5415 10.8573H11.3978C11.2842 10.8573 11.1751 10.9024 11.0948 10.9828C11.0144 11.0632 10.9692 11.1722 10.9692 11.2859V20.7159C10.9692 20.8296 11.0144 20.9386 11.0948 21.019C11.1751 21.0993 11.2842 21.1445 11.3978 21.1445H16.5415C16.6551 21.1445 16.7642 21.0993 16.8446 21.019C16.9249 20.9386 16.9701 20.8296 16.9701 20.7159V17.7154H17.8274V20.7159C17.8274 21.0569 17.6919 21.384 17.4507 21.6251C17.2096 21.8663 16.8825 22.0018 16.5415 22.0018H11.3978C11.0568 22.0018 10.7297 21.8663 10.4886 21.6251C10.2474 21.384 10.1119 21.0569 10.1119 20.7159V11.2859C10.1119 10.9449 10.2474 10.6178 10.4886 10.3766C10.7297 10.1355 11.0568 10 11.3978 10H16.5415C16.8825 10 17.2096 10.1355 17.4507 10.3766C17.6919 10.6178 17.8274 10.9449 17.8274 11.2859V15.1436C17.8274 15.2573 17.8725 15.3663 17.9529 15.4467C18.0333 15.5271 18.1423 15.5723 18.256 15.5723H20.6564L19.6876 14.595L20.2963 13.9906L21.9894 15.7051C22.0679 15.7853 22.1119 15.893 22.1119 16.0052C22.1119 16.1174 22.0679 16.2251 21.9894 16.3052Z" fill="#D2D3D6"/>
</svg>
