<svg width="213" height="39" viewBox="0 0 213 39" fill="none" xmlns="http://www.w3.org/2000/svg">
<g clip-path="url(#clip0_2_3893)">
<g clip-path="url(#clip1_2_3893)">
<path d="M125.824 28.4302H130.314V11.493H125.824V28.4302ZM125.824 8.85179H130.314V4.82385H125.824V8.85179Z" fill="white"/>
<path d="M133.208 33.9769H137.699V26.5153H137.764C138.721 27.9681 140.274 28.9255 142.65 28.9255C147.008 28.9255 149.98 25.4589 149.98 19.9783C149.98 14.6956 147.108 11.0309 142.617 11.0309C140.306 11.0309 138.721 12.1205 137.632 13.6061H137.533V11.4931H133.208V33.9769ZM141.693 25.1947C139.019 25.1947 137.599 23.1808 137.599 20.1103C137.599 17.0728 138.721 14.6627 141.528 14.6627C144.302 14.6627 145.423 16.9078 145.423 20.1103C145.423 23.3128 143.971 25.1947 141.693 25.1947Z" fill="white"/>
<path d="M158.937 28.9255C163.163 28.9255 166.068 26.8786 166.068 23.4779C166.068 19.516 162.932 18.7236 160.092 18.1294C157.682 17.6341 155.437 17.502 155.437 16.0494C155.437 14.8278 156.593 14.1674 158.343 14.1674C160.258 14.1674 161.413 14.8277 161.611 16.6436H165.672C165.342 13.243 162.866 11.0309 158.409 11.0309C154.546 11.0309 151.508 12.7808 151.508 16.4455C151.508 20.1433 154.48 20.9687 157.517 21.563C159.828 22.0252 161.974 22.1903 161.974 23.8081C161.974 24.9966 160.852 25.756 158.871 25.756C156.857 25.756 155.47 24.8975 155.173 22.9497H151.013C151.277 26.5484 154.018 28.9255 158.937 28.9255Z" fill="white"/>
<path d="M183.116 28.4303V11.4932H178.626V21.2659C178.626 23.5109 177.338 25.0957 175.225 25.0957C173.31 25.0957 172.419 24.0062 172.419 22.0253V11.4932H167.962V22.7846C167.962 26.4824 170.074 28.8926 173.839 28.8926C176.216 28.8926 177.536 28.0011 178.692 26.4494H178.791V28.4303H183.116Z" fill="white"/>
<path d="M186.02 28.4303H190.51V18.5916C190.51 16.3464 191.732 14.8938 193.548 14.8938C195.199 14.8938 196.156 15.8842 196.156 17.7992V28.4303H200.646V18.5916C200.646 16.3464 201.802 14.8938 203.684 14.8938C205.335 14.8938 206.292 15.8842 206.292 17.7992V28.4303H210.782V17.0398C210.782 13.342 208.768 11.0309 205.202 11.0309C203.057 11.0309 201.273 12.1534 200.118 14.0023H200.052C199.227 12.2195 197.51 11.0309 195.364 11.0309C193.02 11.0309 191.369 12.2195 190.445 13.7712H190.346V11.4931H186.02V28.4303Z" fill="white"/>
<path d="M8.79449 28.4302H13.2846V4.82385H8.79449V28.4302Z" fill="white"/>
<path d="M24.2638 28.9255C29.5133 28.9255 33.112 25.0297 33.112 19.9783C33.112 14.9267 29.5133 11.0309 24.2638 11.0309C19.0142 11.0309 15.4155 14.9267 15.4155 19.9783C15.4155 25.0297 19.0142 28.9255 24.2638 28.9255ZM24.2638 25.4919C21.4905 25.4919 19.9717 23.2798 19.9717 19.9783C19.9717 16.6766 21.4905 14.4316 24.2638 14.4316C27.0041 14.4316 28.5559 16.6766 28.5559 19.9783C28.5559 23.2798 27.0041 25.4919 24.2638 25.4919Z" fill="white"/>
<path d="M42.6609 34.2081C45.1701 34.2081 47.3492 33.6138 48.7688 32.2931C50.0234 31.1375 50.7828 29.5198 50.7828 27.1427V11.4931H46.4577V13.276H46.3917C45.3681 11.8563 43.8164 11.0309 41.7034 11.0309C37.4114 11.0309 34.3739 14.2664 34.3739 19.3179C34.3739 24.4353 38.0717 27.4067 41.8355 27.4067C43.9815 27.4067 45.2692 26.5484 46.2596 25.4258H46.3586V27.2747C46.3586 29.5858 45.137 30.8074 42.5948 30.8074C40.5148 30.8074 39.5573 29.982 39.1942 28.9255H34.737C35.1993 32.2271 38.0386 34.2081 42.6609 34.2081ZM42.5948 23.8081C40.2837 23.8081 38.765 22.1242 38.765 19.2519C38.765 16.4125 40.2837 14.6297 42.5618 14.6297C45.2692 14.6297 46.5898 16.7427 46.5898 19.2189C46.5898 21.7281 45.4342 23.8081 42.5948 23.8081Z" fill="white"/>
<path d="M61.6967 28.9255C66.9462 28.9255 70.545 25.0297 70.545 19.9783C70.545 14.9267 66.9462 11.0309 61.6967 11.0309C56.4472 11.0309 52.8484 14.9267 52.8484 19.9783C52.8484 25.0297 56.4472 28.9255 61.6967 28.9255ZM61.6967 25.4919C58.9234 25.4919 57.4047 23.2798 57.4047 19.9783C57.4047 16.6766 58.9234 14.4316 61.6967 14.4316C64.437 14.4316 65.9888 16.6766 65.9888 19.9783C65.9888 23.2798 64.437 25.4919 61.6967 25.4919Z" fill="white"/>
<path d="M212.414 8.71245C212.414 7.95269 213.03 7.33679 213.79 7.33679H216.541C217.301 7.33679 217.917 7.95269 217.917 8.71245C217.917 9.47221 217.301 10.0881 216.541 10.0881H213.79C213.03 10.0881 212.414 9.47221 212.414 8.71245Z" fill="white"/>
<path fill-rule="evenodd" clip-rule="evenodd" d="M97.7757 0C108.412 0 117.035 8.62267 117.035 19.2593C117.035 29.8959 108.412 38.5185 97.7757 38.5185C87.1391 38.5185 78.5165 29.8959 78.5165 19.2593C78.5165 8.62267 87.1391 0 97.7757 0ZM97.0796 1.44116C94.8824 1.75037 92.7903 3.51585 91.1662 6.46861C90.6952 7.32509 90.2701 8.27133 89.8998 9.29301C92.108 8.73809 94.5338 8.41092 97.0796 8.36032V1.44116ZM88.272 9.75558C88.7326 8.30997 89.2961 6.97994 89.9464 5.79766C90.7514 4.3339 91.7069 3.06988 92.7834 2.09904C86.9296 3.79911 82.3156 8.4132 80.6155 14.267C81.5863 13.1905 82.8503 12.235 84.3141 11.43C85.4964 10.7797 86.8264 10.2162 88.272 9.75558ZM87.8095 11.3833C87.2545 13.5915 86.9274 16.0173 86.8767 18.5631H79.9576C80.2668 16.3659 82.0323 14.2738 84.9851 12.6499C85.8415 12.1788 86.7878 11.7537 87.8095 11.3833ZM88.2693 18.5631C88.3268 15.7849 88.7268 13.1766 89.3885 10.872C91.6931 10.2103 94.3014 9.81028 97.0796 9.75279V12.76C96.0432 15.4134 93.9293 17.5271 91.2758 18.5631H88.2693ZM86.8767 19.9554H79.9576C80.2668 22.1526 82.0323 24.2446 84.9851 25.8686C85.8415 26.3397 86.7878 26.7648 87.8095 27.1352C87.2545 24.927 86.9274 22.5012 86.8767 19.9554ZM89.3885 27.6465C88.7268 25.3419 88.3268 22.7336 88.2693 19.9554H91.2758C93.9293 20.9914 96.0432 23.1051 97.0796 25.7585V28.7657C94.3014 28.7082 91.6931 28.3082 89.3885 27.6465ZM88.272 28.7629C86.8264 28.3023 85.4964 27.7388 84.3141 27.0885C82.8503 26.2835 81.5863 25.328 80.6155 24.2515C82.3156 30.1053 86.9296 34.7194 92.7834 36.4194C91.7069 35.4486 90.7514 34.1846 89.9464 32.7208C89.2961 31.5386 88.7326 30.2085 88.272 28.7629ZM97.0796 37.0773C94.8824 36.7681 92.7903 35.0026 91.1662 32.0499C90.6952 31.1934 90.2701 30.2471 89.8998 29.2255C92.108 29.7804 94.5338 30.1076 97.0796 30.1582V37.0773ZM102.768 36.4194C103.845 35.4486 104.8 34.1846 105.605 32.7208C106.255 31.5386 106.819 30.2085 107.28 28.7629C108.725 28.3023 110.055 27.7388 111.237 27.0885C112.701 26.2835 113.965 25.328 114.936 24.2515C113.235 30.1053 108.622 34.7194 102.768 36.4194ZM105.652 29.2255C105.281 30.2471 104.856 31.1934 104.385 32.0499C102.761 35.0026 100.669 36.7681 98.4718 37.0773V30.1582C101.018 30.1076 103.443 29.7804 105.652 29.2255ZM107.742 27.1352C108.763 26.7648 109.71 26.3397 110.566 25.8686C113.52 24.2447 115.285 22.1526 115.594 19.9554H108.675C108.624 22.5012 108.296 24.927 107.742 27.1352ZM107.282 19.9554C107.225 22.7336 106.825 25.3419 106.162 27.6465C103.858 28.3082 101.25 28.7082 98.4718 28.7657V25.7607C99.5079 23.1064 101.622 20.9917 104.276 19.9554H107.282ZM108.675 18.5631H115.594C115.285 16.3659 113.52 14.2738 110.566 12.6499C109.71 12.1788 108.763 11.7537 107.742 11.3833C108.296 13.5915 108.624 16.0173 108.675 18.5631ZM106.162 10.872C106.825 13.1766 107.225 15.7849 107.282 18.5631H104.277C101.622 17.5268 99.5079 15.4121 98.4718 12.7578V9.75279C101.25 9.81028 103.858 10.2103 106.162 10.872ZM107.28 9.75558C108.725 10.2162 110.055 10.7797 111.237 11.43C112.701 12.235 113.965 13.1905 114.936 14.267C113.235 8.4132 108.622 3.79911 102.768 2.09904C103.845 3.06988 104.8 4.3339 105.605 5.79766C106.255 6.97994 106.819 8.30997 107.28 9.75558ZM98.4718 1.44116C100.669 1.75037 102.761 3.51585 104.385 6.46861C104.856 7.3251 105.281 8.27133 105.652 9.29301C103.443 8.73809 101.018 8.41092 98.4718 8.36032V1.44116Z" fill="white"/>
</g>
</g>
<defs>
<clipPath id="clip0_2_3893">
<rect width="211.852" height="38.5185" fill="white" transform="translate(0.66748)"/>
</clipPath>
<clipPath id="clip1_2_3893">
<rect width="209.926" height="38.5185" fill="white" transform="translate(8.00085)"/>
</clipPath>
</defs>
</svg>
