<svg width="213" height="39" viewBox="0 0 213 39" fill="none" xmlns="http://www.w3.org/2000/svg">
<g clip-path="url(#clip0_2_3887)">
<g clip-path="url(#clip1_2_3887)">
<path d="M192.936 7.38029L196.955 11.4273C197.096 11.5391 197.2 11.69 197.254 11.8609C197.336 12.857 196.582 12.9115 195.811 12.9672C195.478 12.9912 195.142 13.0156 194.869 13.1165C193.517 13.4823 192.312 14.255 191.415 15.3297C190.518 16.4044 189.974 17.729 189.855 19.1238C189.769 19.2849 189.638 19.4175 189.477 19.5056C189.317 19.5938 189.135 19.6337 188.952 19.6207C188.74 19.6019 188.542 19.5091 188.392 19.3586L187.072 18.0303C187.082 18.1212 187.082 18.2113 187.082 18.2837V19.1599C187.082 19.2152 187.084 19.2686 187.077 19.3218C187.068 19.3816 187.048 19.4411 187.001 19.5031V19.5844C187.001 19.626 187.006 19.6646 187.011 19.7038C187.02 19.784 187.031 19.8666 187.001 19.982C186.972 20.0895 186.969 20.215 186.965 20.327C186.964 20.3935 186.963 20.4554 186.956 20.5058C186.946 20.5758 186.946 20.6505 186.94 20.7252C186.935 20.7951 186.923 20.8649 186.892 20.9304C186.85 21.0221 186.835 21.1096 186.832 21.1986C186.829 21.2411 186.829 21.284 186.829 21.3279L186.775 21.6079L184.725 31.3821L184.562 32.1138L184.498 33.1797L183.595 37.7958L183.451 38.5185H110.343L109.991 38.1662L109.928 38.4733H102.105L97.7506 34.0922L98.1661 32.1138H95.709L94.1824 30.5691C92.2878 31.9487 89.9945 32.6719 87.6512 32.6287C85.1323 32.7278 82.6767 31.8248 80.822 30.1174L78.4462 27.7236L77.9313 30.1264C77.8681 30.4697 77.7867 30.795 77.6964 31.1111L77.6151 31.4092L77.4797 31.8428C77.4685 31.8804 77.4534 31.9168 77.4345 31.9512C77.3 32.3495 77.1401 32.7387 76.9557 33.1165C76.9605 33.1311 76.9605 33.147 76.9557 33.1616C76.932 33.2117 76.9049 33.26 76.8743 33.3062C76.738 33.5761 76.5873 33.8384 76.4227 34.0922C76.3922 34.1383 76.365 34.1866 76.3414 34.2367L76.2421 34.345C76.0212 34.6618 75.7798 34.9634 75.5193 35.2484C75.4479 35.3198 75.3764 35.387 75.3038 35.4528C75.2297 35.5202 75.1544 35.5864 75.0767 35.6549L74.878 35.8446C74.7527 35.9487 74.6246 36.0491 74.4937 36.1459C74.3857 36.2257 74.276 36.3029 74.1644 36.3776C72.3027 37.4806 70.1552 38.0056 67.9946 37.8861C65.0135 37.8861 62.6286 37.0189 61.1201 35.5014L56.8744 31.2285C55.1785 32.1882 53.2582 32.6807 51.3098 32.6558C48.7985 32.7335 46.3577 31.8182 44.5167 30.1084L42.1409 27.7146L41.3731 31.4092L41.2195 32.1409H33.2249L28.8527 27.7326L29.0786 26.6667L33.8843 3.58625L34.0288 2.86358H42.0505L42.2583 3.06235V2.86358H96.3053L96.504 3.06235V2.86358H104.327L108.699 7.27189L108.482 8.32879L108.247 9.48509H110.497L110.849 9.83744C111.839 9.25739 112.963 8.94597 114.11 8.93407C114.954 8.91741 115.791 9.07764 116.569 9.40437C117.347 9.73112 118.048 10.217 118.627 10.831L118.509 10.6955L120.632 12.8365C121.924 10.4065 124.824 8.93407 128.762 8.93407C131.816 8.93407 134.065 9.7109 135.429 11.1201L136.965 12.6649L137.48 10.1806L137.633 9.45796H145.465L147.705 11.7073L148.021 10.1897L148.175 9.467H163.587L164.002 9.8826C165.046 9.26665 166.241 8.9538 167.453 8.97922C168.182 8.95077 168.908 9.08425 169.58 9.37008C170.251 9.65592 170.851 10.087 171.337 10.6324C171.312 10.604 171.287 10.5755 171.263 10.5476C171.22 10.4958 171.177 10.4453 171.13 10.3985L171.915 11.1834C172.599 10.4753 173.421 9.91457 174.329 9.53559C175.238 9.15659 176.215 8.96721 177.199 8.97922C177.722 8.94708 178.244 8.99157 178.75 9.10995L177.895 8.24752C177.779 8.12286 177.7 7.96776 177.668 7.8002C177.636 7.63265 177.653 7.45941 177.714 7.30067C177.777 7.14188 177.883 7.00404 178.02 6.90304C178.158 6.80203 178.321 6.74198 178.491 6.72991H179.178C179.363 6.71227 179.547 6.68514 179.729 6.64858C180.689 6.44679 181.592 6.03416 182.373 5.44045C183.155 4.84681 183.794 4.08699 184.246 3.2159C184.286 3.14852 184.321 3.07922 184.354 3.00814V2.96299C184.665 2.29392 184.854 1.57522 184.914 0.840104C184.93 0.611677 185.033 0.397806 185.2 0.241883C185.368 0.0859039 185.588 -0.000548735 185.818 2.62107e-06H185.89C186.027 0.0130146 186.159 0.0572334 186.277 0.12924C186.394 0.201303 186.494 0.299223 186.568 0.41556C187.218 1.04791 190.831 4.72446 190.831 4.72446C191.132 5.04822 191.11 5.46852 191.087 5.89378C191.072 6.15672 191.058 6.42159 191.12 6.66667C191.284 6.69616 191.451 6.7185 191.617 6.7336C191.776 6.74799 191.936 6.75582 192.096 6.75698C192.283 6.76089 192.465 6.82298 192.615 6.93468C192.765 7.04634 192.878 7.2021 192.936 7.38029Z" fill="#09090F"/>
<path d="M70.1986 10.3527H75.9077L72.7099 25.5198C72.1228 28.3924 71.0026 30.0366 69.3043 31.2018C67.5866 32.1986 65.6141 32.6697 63.6314 32.5568C59.8554 32.5568 56.233 30.976 55.8717 27.1368H61.6169C61.7975 28.0401 62.6287 28.555 63.8933 28.555C65.6007 28.555 66.3865 27.5252 66.7389 25.9082L67.0821 24.237H66.9557C66.4515 24.7912 65.8401 25.2371 65.1584 25.5476C64.4766 25.8582 63.739 26.027 62.99 26.0437C59.6657 26.0437 57.0279 23.3969 57.0821 19.5216C57.1544 15.0049 60.0993 9.87394 65.0406 9.87394C65.977 9.81087 66.9118 10.0172 67.7347 10.4687C68.5575 10.92 69.2338 11.5976 69.6837 12.4214H69.7831L70.1986 10.3527ZM65.2935 21.8071C67.4887 21.8071 68.7081 19.2778 68.7443 17.1007C68.7443 15.6463 68.1751 14.1558 66.495 14.1558C64.2004 14.1558 63.0351 16.7122 62.999 18.9073C62.999 20.3888 63.5681 21.8071 65.2483 21.8071M129.386 22.2949C129.386 23.2614 128.554 23.6499 127.461 23.6499C125.655 23.6499 125.05 22.7465 125.041 21.4819H119.359C119.259 26.1973 123.469 27.3626 127.209 27.3626C131.987 27.3626 135.086 25.294 135.149 21.1657C135.149 17.8685 132.339 16.8658 129.576 16.2244C127.452 15.7367 126.522 15.3843 126.531 14.5803C126.541 13.7763 127.489 13.4512 128.419 13.4512C129.584 13.4512 130.379 13.8667 130.461 14.9327H135.98C135.917 10.9941 132.366 9.83783 128.753 9.83783C124.363 9.83783 120.939 11.8341 120.885 15.6101C120.885 18.5821 122.891 19.6752 125.917 20.4521C127.859 20.967 129.403 21.1295 129.386 22.2949ZM171.599 12.8008H171.499C171.254 11.9112 170.711 11.1324 169.961 10.5935C169.212 10.0546 168.301 9.78795 167.38 9.83783C164.923 9.83783 163.424 11.0573 162.005 12.9001H161.906L162.43 10.3527H156.684L153.243 26.8116H159.25L161.057 17.9317C161.472 15.9986 162.457 14.6436 163.948 14.6436C165.438 14.6436 165.637 15.8359 165.33 17.2904L163.342 26.8116H169.349L171.157 17.9317C171.572 15.8721 172.557 14.6436 174.046 14.6436C175.537 14.6436 175.736 15.7728 175.429 17.2904L173.442 26.8116H179.449L181.599 17.0284C182.502 12.9001 181.12 9.80162 177.155 9.80162C176.051 9.7971 174.965 10.0692 173.994 10.5932C173.024 11.1171 172.2 11.8761 171.599 12.8008ZM29.9548 26.8116H36.1607L40.9575 3.7312H34.7606L29.9548 26.8116ZM48.6359 9.86489C52.8273 9.86489 56.8292 12.1593 56.766 17.3536C56.7117 23.0356 52.8454 27.2904 46.9376 27.2904C42.8725 27.2904 38.8076 25.032 38.8798 19.8649C38.9792 14.3184 42.7913 9.86489 48.6359 9.86489ZM47.1093 23.2614C49.7561 23.2614 50.7226 19.4222 50.7226 17.1639C50.7226 15.5469 50.2258 13.9661 48.4823 13.9661C45.8626 13.9661 44.9683 18.0311 44.9683 20.1269C44.9683 21.8071 45.4381 23.2614 47.1454 23.2614M43.0261 3.7312L42.1228 8.34728H94.2366L95.1399 3.7312H43.0261ZM84.9412 9.86489C89.1327 9.86489 93.1345 12.1593 93.0713 17.3536C93.0171 23.0356 89.1417 27.2904 83.2339 27.2904C79.1688 27.2904 75.1038 25.032 75.1851 19.8649C75.3116 14.3184 79.1236 9.86489 84.9412 9.86489ZM83.4417 23.2614C86.0885 23.2614 87.055 19.4222 87.055 17.1639C87.055 15.5469 86.5492 13.9661 84.8057 13.9661C82.195 13.9661 81.2917 18.0311 81.2917 20.1269C81.2917 21.8071 81.7614 23.2614 83.4778 23.2614M97.2718 3.7312L96.3685 8.34728H102.367L103.27 3.7312H97.2718ZM92.4661 26.8116H98.4732L101.915 10.3527H95.8716L92.4661 26.8116ZM111.635 27.3626C110.679 27.4305 109.723 27.2307 108.874 26.7855C108.025 26.3403 107.317 25.6674 106.829 24.8423H106.73L104.923 33.1711H98.8436L103.722 10.3527H109.431L108.979 12.5478C109.575 11.737 110.348 11.0719 111.238 10.6024C112.128 10.1331 113.113 9.87163 114.119 9.83783C117.732 9.83783 119.855 12.9363 119.792 16.9652C119.711 22.0329 117.082 27.3626 111.599 27.3626H111.635ZM111.4 14.4991C109.079 14.4991 107.651 17.471 107.615 19.7565C107.615 21.3464 108.175 23.1169 110.081 23.1169C112.565 23.1169 113.586 19.8288 113.613 17.6336C113.613 16.1431 113.18 14.4991 111.4 14.4991ZM146.134 24.219H146.233L145.709 26.8297H151.418L154.86 10.3707H148.862L146.947 19.5667C146.559 21.4728 145.384 22.4756 143.903 22.4756C142.421 22.4756 142.095 21.0844 142.394 19.63L144.336 10.3707H138.338L136.214 20.5334C135.311 24.9597 137.371 27.3446 140.822 27.3446C141.906 27.334 142.968 27.0379 143.9 26.4859C144.832 25.9339 145.603 25.1458 146.134 24.2009V24.219ZM178.356 33.2525L179.259 28.6363H108.022L107.118 33.2525H178.356Z" fill="white"/>
<path d="M184.814 14.8689C184.756 14.8643 184.698 14.8481 184.645 14.821C184.591 14.794 184.544 14.7568 184.505 14.7114C184.467 14.6661 184.438 14.6136 184.419 14.5569C184.401 14.5001 184.394 14.4404 184.399 14.381C184.474 13.5766 184.379 12.7652 184.119 12.0002C183.859 11.2352 183.44 10.5337 182.889 9.94186C182.339 9.34999 181.67 8.881 180.927 8.56563C180.182 8.25027 179.38 8.09564 178.572 8.11188C178.453 8.11188 178.338 8.0643 178.254 7.97958C178.169 7.89488 178.121 7.77999 178.121 7.6602C178.121 7.54041 178.169 7.42553 178.254 7.34083C178.338 7.25612 178.453 7.20853 178.572 7.20853C178.789 7.22253 179.007 7.22253 179.223 7.20853C180.828 7.03759 182.322 6.31269 183.45 5.15855C184.578 4.00441 185.268 2.49323 185.402 0.885136C185.411 0.771715 185.462 0.665918 185.546 0.588878C185.63 0.511839 185.74 0.469242 185.853 0.469607C185.913 0.474166 185.971 0.490429 186.024 0.517451C186.077 0.544472 186.124 0.581723 186.162 0.62706C186.202 0.672398 186.231 0.724924 186.249 0.781619C186.267 0.838315 186.274 0.898053 186.269 0.957405C186.194 1.76116 186.29 2.57173 186.549 3.33611C186.809 4.10048 187.227 4.80145 187.775 5.39319C188.325 5.98492 188.993 6.4541 189.735 6.77004C190.478 7.08597 191.28 7.24155 192.087 7.2266C192.206 7.2266 192.322 7.27419 192.406 7.3589C192.491 7.4436 192.538 7.55848 192.538 7.67827C192.538 7.79807 192.491 7.91296 192.406 7.99766C192.322 8.08236 192.206 8.12994 192.087 8.12994C190.371 8.15829 188.725 8.8194 187.466 9.98645C186.208 11.1535 185.424 12.7442 185.267 14.4533C185.257 14.5668 185.206 14.6726 185.122 14.7496C185.039 14.8267 184.929 14.8692 184.814 14.8689Z" fill="white"/>
</g>
</g>
<defs>
<clipPath id="clip0_2_3887">
<rect width="211.852" height="38.5185" fill="white" transform="translate(0.815613)"/>
</clipPath>
<clipPath id="clip1_2_3887">
<rect width="168.518" height="38.5185" fill="white" transform="translate(28.8527)"/>
</clipPath>
</defs>
</svg>
