<svg width="213" height="39" viewBox="0 0 213 39" fill="none" xmlns="http://www.w3.org/2000/svg">
<g clip-path="url(#clip0_2_3907)">
<path d="M72.9159 6.04175H76.7626V27.0238H83.0922V30.5209H72.9159V6.04175Z" fill="white"/>
<path d="M90.3606 30.871C88.4722 30.871 87.0268 30.3348 86.0243 29.2624C85.0219 28.1899 84.5206 26.6746 84.5206 24.7162V11.8473C84.5206 9.88893 85.0219 8.37355 86.0243 7.30114C87.0268 6.22871 88.4722 5.6925 90.3606 5.6925C92.249 5.6925 93.6944 6.22871 94.6969 7.30114C95.6994 8.37355 96.2006 9.88893 96.2006 11.8473V24.7162C96.2006 26.6746 95.6994 28.1899 94.6969 29.2624C93.6944 30.3348 92.249 30.871 90.3606 30.871ZM90.3606 27.374C91.6895 27.374 92.3539 26.5696 92.3539 24.961V11.6025C92.3539 9.99383 91.6895 9.18952 90.3606 9.18952C89.0317 9.18952 88.3673 9.99383 88.3673 11.6025V24.961C88.3673 26.5696 89.0317 27.374 90.3606 27.374Z" fill="white"/>
<path d="M104.257 30.871C102.392 30.871 100.97 30.3465 99.9908 29.2973C99.0117 28.225 98.5221 26.6979 98.5221 24.7162V11.8473C98.5221 9.86561 99.0117 8.35024 99.9908 7.30114C100.97 6.22871 102.392 5.6925 104.257 5.6925C106.122 5.6925 107.544 6.22871 108.524 7.30114C109.503 8.35024 109.992 9.86561 109.992 11.8473V13.9455H106.355V11.6025C106.355 9.99383 105.691 9.18952 104.362 9.18952C103.033 9.18952 102.369 9.99383 102.369 11.6025V24.9961C102.369 26.5814 103.033 27.374 104.362 27.374C105.691 27.374 106.355 26.5814 106.355 24.9961V20.2051H104.432V16.7081H109.992V24.7162C109.992 26.6979 109.503 28.225 108.524 29.2973C107.544 30.3465 106.122 30.871 104.257 30.871Z" fill="white"/>
<path d="M118.022 30.871C116.134 30.871 114.689 30.3348 113.686 29.2624C112.684 28.1899 112.182 26.6746 112.182 24.7162V11.8473C112.182 9.88893 112.684 8.37355 113.686 7.30114C114.689 6.22871 116.134 5.6925 118.022 5.6925C119.911 5.6925 121.356 6.22871 122.359 7.30114C123.361 8.37355 123.862 9.88893 123.862 11.8473V24.7162C123.862 26.6746 123.361 28.1899 122.359 29.2624C121.356 30.3348 119.911 30.871 118.022 30.871ZM118.022 27.374C119.351 27.374 120.016 26.5696 120.016 24.961V11.6025C120.016 9.99383 119.351 9.18952 118.022 9.18952C116.694 9.18952 116.029 9.99383 116.029 11.6025V24.961C116.029 26.5696 116.694 27.374 118.022 27.374Z" fill="white"/>
<path d="M126.471 6.04175H130.318V30.5209H126.471V6.04175Z" fill="white"/>
<path d="M133.199 6.04175H138.864C140.775 6.04175 142.209 6.55464 143.165 7.58044C144.122 8.60622 144.599 10.1099 144.599 12.0916V14.5045C144.599 16.4862 144.122 17.9899 143.165 19.0157C142.209 20.0414 140.775 20.5543 138.864 20.5543H137.046V30.5209H133.199V6.04175ZM138.864 17.0573C139.494 17.0573 139.96 16.8824 140.263 16.5328C140.589 16.183 140.752 15.5886 140.752 14.7493V11.8468C140.752 11.0075 140.589 10.413 140.263 10.0633C139.96 9.71361 139.494 9.53877 138.864 9.53877H137.046V17.0573H138.864Z" fill="white"/>
<path d="M151.825 30.871C149.961 30.871 148.55 30.3465 147.594 29.2973C146.639 28.225 146.16 26.6979 146.16 24.7162V23.3174H149.797V24.9961C149.797 26.5814 150.462 27.374 151.791 27.374C152.443 27.374 152.933 27.1875 153.259 26.8145C153.609 26.4182 153.784 25.7887 153.784 24.9261C153.784 23.9003 153.551 23.0027 153.085 22.2334C152.619 21.4407 151.756 20.4965 150.496 19.4008C148.911 18.002 147.804 16.7431 147.174 15.624C146.545 14.4817 146.23 13.1994 146.23 11.7773C146.23 9.8423 146.72 8.35024 147.699 7.30114C148.678 6.22871 150.101 5.6925 151.966 5.6925C153.807 5.6925 155.195 6.22871 156.127 7.30114C157.083 8.35024 157.561 9.86561 157.561 11.8473V12.8614H153.924V11.6025C153.924 10.7632 153.761 10.157 153.434 9.78401C153.108 9.38768 152.63 9.18952 152.001 9.18952C150.718 9.18952 150.077 9.97052 150.077 11.5325C150.077 12.4184 150.311 13.2461 150.777 14.0154C151.266 14.7847 152.14 15.7172 153.4 16.813C155.008 18.2118 156.115 19.4824 156.722 20.6248C157.328 21.7672 157.631 23.1076 157.631 24.6463C157.631 26.6513 157.129 28.1899 156.127 29.2624C155.147 30.3348 153.714 30.871 151.825 30.871Z" fill="white"/>
<path d="M165.432 30.8705C163.567 30.8705 162.144 30.346 161.165 29.2969C160.186 28.2245 159.697 26.6974 159.697 24.7158V6.04175H163.544V24.9956C163.544 25.8348 163.706 26.441 164.033 26.8141C164.382 27.187 164.872 27.3735 165.501 27.3735C166.131 27.3735 166.609 27.187 166.935 26.8141C167.285 26.441 167.46 25.8348 167.46 24.9956V6.04175H171.166V24.7158C171.166 26.6974 170.677 28.2245 169.698 29.2969C168.719 30.346 167.296 30.8705 165.432 30.8705Z" fill="white"/>
<path d="M173.906 6.04175H179.397L181.845 23.5618H181.914L184.363 6.04175H189.853V30.5209H186.216V11.9867H186.146L183.348 30.5209H180.131L177.333 11.9867H177.264V30.5209H173.906V6.04175Z" fill="white"/>
<path d="M35.7787 30.5211C40.5111 30.5211 44.3475 26.6847 44.3475 21.9523C44.3475 17.2198 40.5111 13.3834 35.7787 13.3834V19.3816C37.1984 19.3816 38.3493 20.5325 38.3493 21.9523C38.3493 23.372 37.1984 24.5229 35.7787 24.5229V30.5211Z" fill="white"/>
<path d="M64.3415 16.2404C62.8772 15.7765 61.3179 15.5262 59.7 15.5262C51.221 15.5262 44.3475 22.3999 44.3475 30.8788C44.3475 31.7298 44.4168 32.5647 44.5499 33.378H54.0889C53.7484 32.6146 53.5591 31.7688 53.5591 30.8788C53.5591 27.4872 56.3085 24.7378 59.7 24.7378C61.5537 24.7378 63.2155 25.5591 64.3415 26.8576V16.2404Z" fill="white"/>
<path d="M37.2853 4.8147C37.9957 11.2413 43.4442 16.2399 50.0601 16.2399C56.676 16.2399 62.1245 11.2413 62.8349 4.8147H53.6429C53.0755 6.23728 51.6851 7.24253 50.0601 7.24253C48.435 7.24253 47.0448 6.23728 46.4772 4.8147H37.2853Z" fill="white"/>
</g>
<defs>
<clipPath id="clip0_2_3907">
<rect width="154.074" height="28.8889" fill="white" transform="translate(35.7787 4.8147)"/>
</clipPath>
</defs>
</svg>
