<svg width="213" height="39" viewBox="0 0 213 39" fill="none" xmlns="http://www.w3.org/2000/svg">
<g clip-path="url(#clip0_2_3872)">
<g clip-path="url(#clip1_2_3872)">
<path fill-rule="evenodd" clip-rule="evenodd" d="M40.61 11.2525C39.0264 10.1944 37.1646 9.62963 35.2601 9.62963V0C39.0692 0 42.7928 1.12954 45.9599 3.24577C49.1271 5.362 51.5956 8.36989 53.0533 11.889C54.511 15.4082 54.8924 19.2806 54.1493 23.0165C53.4062 26.7525 51.5719 30.1842 48.8784 32.8776C46.185 35.5711 42.7533 37.4053 39.0174 38.1484C35.2815 38.8916 31.409 38.5101 27.8899 37.0525C24.3707 35.5948 21.3628 33.1263 19.2466 29.9591C17.1304 26.7919 16.0008 23.0684 16.0008 19.2593H25.6305C25.6305 21.1638 26.1952 23.0256 27.2533 24.6092C28.3114 26.1928 29.8154 27.427 31.575 28.1559C33.3345 28.8847 35.2708 29.0754 37.1387 28.7038C39.0067 28.3323 40.7225 27.4152 42.0693 26.0685C43.416 24.7217 44.3331 23.0059 44.7046 21.1379C45.0762 19.2699 44.8856 17.3337 44.1567 15.5742C43.4278 13.8146 42.1936 12.3106 40.61 11.2525Z" fill="white"/>
<path fill-rule="evenodd" clip-rule="evenodd" d="M25.6304 5.08919e-06C25.6304 1.26459 25.3814 2.51678 24.8974 3.68511C24.4135 4.85342 23.7042 5.91498 22.81 6.80918C21.9158 7.70338 20.8542 8.41269 19.6859 8.89663C18.5176 9.38055 17.2654 9.62963 16.0008 9.62963L16.0008 19.2593C18.53 19.2593 21.0344 18.7611 23.371 17.7932C25.7077 16.8254 27.8308 15.4067 29.6191 13.6183C31.4075 11.83 32.8262 9.70686 33.7941 7.3702C34.7619 5.03356 35.2601 2.52916 35.2601 0L25.6304 5.08919e-06Z" fill="white"/>
<path d="M136.967 13.9169H132.295V28.7583H136.967V13.9169Z" fill="white"/>
<path d="M132.815 11.1377C133.303 11.6263 133.914 11.8706 134.646 11.8706C135.379 11.8706 135.98 11.6263 136.448 11.1377C136.917 10.6288 137.151 10.018 137.151 9.30542C137.151 8.57253 136.917 7.96174 136.448 7.47315C135.98 6.98453 135.379 6.74023 134.646 6.74023C133.914 6.74023 133.303 6.98453 132.815 7.47315C132.346 7.96174 132.112 8.57253 132.112 9.30542C132.112 10.018 132.346 10.6288 132.815 11.1377Z" fill="white"/>
<path d="M65.2623 28.7585V7.19861H70.0568V24.5443H79.6153V28.7585H65.2623Z" fill="white"/>
<path fill-rule="evenodd" clip-rule="evenodd" d="M88.2494 29.0945C86.7226 29.0945 85.3382 28.7586 84.0963 28.0868C82.8748 27.3946 81.9078 26.4581 81.1952 25.2772C80.4827 24.0964 80.1264 22.7731 80.1264 21.3073C80.1264 19.8415 80.4827 18.5284 81.1952 17.3679C81.9078 16.2075 82.8748 15.2913 84.0963 14.6195C85.3178 13.9273 86.7022 13.5812 88.2494 13.5812C89.7967 13.5812 91.1811 13.9172 92.4026 14.5889C93.6241 15.2608 94.5912 16.1871 95.3037 17.3679C96.0163 18.5284 96.3726 19.8415 96.3726 21.3073C96.3726 22.7731 96.0163 24.0964 95.3037 25.2772C94.5912 26.4581 93.6241 27.3946 92.4026 28.0868C91.1811 28.7586 89.7967 29.0945 88.2494 29.0945ZM88.2494 24.8498C88.9213 24.8498 89.5117 24.7073 90.0207 24.4222C90.5296 24.1169 90.9165 23.6995 91.1811 23.1702C91.4661 22.6205 91.6086 21.9995 91.6086 21.3073C91.6086 20.6151 91.4661 20.0145 91.1811 19.5056C90.8961 18.9763 90.4991 18.5691 89.9901 18.2841C89.5015 17.9786 88.9213 17.826 88.2494 17.826C87.598 17.826 87.0178 17.9786 86.5088 18.2841C85.9999 18.5691 85.6028 18.9763 85.3178 19.5056C85.0328 20.035 84.8903 20.6457 84.8903 21.3378C84.8903 22.0097 85.0328 22.6205 85.3178 23.1702C85.6028 23.6995 85.9999 24.1169 86.5088 24.4222C87.0178 24.7073 87.598 24.8498 88.2494 24.8498Z" fill="white"/>
<path fill-rule="evenodd" clip-rule="evenodd" d="M100.073 34.561C101.315 35.131 102.75 35.416 104.379 35.416C105.967 35.416 107.382 35.1004 108.624 34.4693C109.866 33.8382 110.843 32.9628 111.555 31.8431C112.268 30.7234 112.625 29.4001 112.625 27.8731V13.9173H108.043V14.9144C107.703 14.6276 107.316 14.3869 106.883 14.1921C106.089 13.8053 105.183 13.6118 104.165 13.6118C102.801 13.6118 101.59 13.9376 100.531 14.589C99.4723 15.2202 98.6377 16.0956 98.0269 17.2153C97.4161 18.3147 97.1108 19.5566 97.1108 20.941C97.1108 22.3051 97.4161 23.5469 98.0269 24.6666C98.6377 25.7864 99.4723 26.672 100.531 27.3234C101.59 27.9749 102.801 28.3007 104.165 28.3007C105.163 28.3007 106.069 28.1073 106.883 27.7205C107.277 27.5331 107.634 27.3123 107.952 27.058V27.9953C107.952 29.0336 107.616 29.8377 106.944 30.4078C106.293 30.9779 105.387 31.2628 104.226 31.2628C103.29 31.2628 102.485 31.1 101.814 30.7742C101.162 30.4485 100.572 29.9701 100.042 29.3389L97.1719 32.2095C97.8844 33.2275 98.8515 34.0113 100.073 34.561ZM106.73 23.7199C106.262 24.005 105.702 24.1475 105.051 24.1475C104.399 24.1475 103.829 24.005 103.341 23.7199C102.872 23.4349 102.506 23.0481 102.241 22.5595C101.976 22.0505 101.844 21.511 101.844 20.941C101.844 20.3302 101.976 19.7806 102.241 19.2919C102.506 18.8033 102.882 18.4165 103.371 18.1315C103.86 17.8464 104.42 17.7039 105.051 17.7039C105.702 17.7039 106.262 17.8464 106.73 18.1315C107.219 18.4165 107.585 18.8033 107.83 19.2919C108.094 19.7806 108.227 20.3302 108.227 20.941C108.227 21.5517 108.094 22.1014 107.83 22.59C107.585 23.0583 107.219 23.4349 106.73 23.7199Z" fill="white"/>
<path fill-rule="evenodd" clip-rule="evenodd" d="M122.457 29.0945C120.93 29.0945 119.545 28.7586 118.304 28.0868C117.082 27.3946 116.115 26.4581 115.403 25.2772C114.69 24.0964 114.334 22.7731 114.334 21.3073C114.334 19.8415 114.69 18.5284 115.403 17.3679C116.115 16.2075 117.082 15.2913 118.304 14.6195C119.525 13.9273 120.91 13.5812 122.457 13.5812C124.004 13.5812 125.389 13.9172 126.61 14.5889C127.832 15.2608 128.798 16.1871 129.511 17.3679C130.224 18.5284 130.58 19.8415 130.58 21.3073C130.58 22.7731 130.224 24.0964 129.511 25.2772C128.798 26.4581 127.832 27.3946 126.61 28.0868C125.389 28.7586 124.004 29.0945 122.457 29.0945ZM122.457 24.8498C123.128 24.8498 123.719 24.7073 124.228 24.4222C124.737 24.1169 125.124 23.6995 125.389 23.1702C125.674 22.6205 125.816 21.9995 125.816 21.3073C125.816 20.6151 125.674 20.0145 125.389 19.5056C125.104 18.9763 124.707 18.5691 124.197 18.2841C123.709 17.9786 123.128 17.826 122.457 17.826C121.805 17.826 121.225 17.9786 120.716 18.2841C120.207 18.5691 119.81 18.9763 119.525 19.5056C119.24 20.035 119.098 20.6457 119.098 21.3378C119.098 22.0097 119.24 22.6205 119.525 23.1702C119.81 23.6995 120.207 24.1169 120.716 24.4222C121.225 24.7073 121.805 24.8498 122.457 24.8498Z" fill="white"/>
<path fill-rule="evenodd" clip-rule="evenodd" d="M148.197 29.0641C147.201 29.0641 146.284 28.8707 145.449 28.4839C145.01 28.2803 144.613 28.0373 144.259 27.7548V35.0191H139.647V13.9173H144.319V14.9416C144.658 14.6643 145.035 14.4247 145.449 14.2226C146.284 13.8154 147.201 13.6118 148.197 13.6118C149.602 13.6118 150.844 13.9478 151.923 14.6197C153.023 15.2914 153.878 16.2076 154.488 17.368C155.12 18.5285 155.435 19.8518 155.435 21.338C155.435 22.8242 155.12 24.1475 154.488 25.308C153.878 26.4684 153.023 27.3845 151.923 28.0564C150.844 28.7282 149.602 29.0641 148.197 29.0641ZM147.343 24.8499C148.014 24.8499 148.595 24.6972 149.083 24.3918C149.593 24.0864 149.989 23.669 150.274 23.1398C150.559 22.6104 150.702 22.0098 150.702 21.338C150.702 20.6458 150.559 20.0351 150.274 19.5057C149.989 18.9764 149.593 18.5692 149.083 18.2842C148.595 17.9788 148.025 17.8261 147.373 17.8261C146.722 17.8261 146.141 17.9788 145.633 18.2842C145.144 18.5692 144.758 18.9764 144.473 19.5057C144.188 20.0351 144.045 20.6458 144.045 21.338C144.045 22.0098 144.177 22.6104 144.442 23.1398C144.727 23.669 145.124 24.0864 145.633 24.3918C146.141 24.6972 146.711 24.8499 147.343 24.8499Z" fill="white"/>
<path d="M160.008 28.7891C160.863 29.013 161.728 29.1249 162.603 29.1249C164.456 29.1249 165.922 28.6975 167.001 27.8424C168.1 26.9874 168.65 25.8371 168.65 24.3916C168.65 23.4551 168.477 22.7018 168.131 22.1318C167.785 21.5414 167.337 21.0731 166.787 20.727C166.237 20.3809 165.657 20.106 165.046 19.9024C164.436 19.6989 163.855 19.5258 163.306 19.3833C162.756 19.2408 162.309 19.078 161.962 18.8947C161.616 18.7115 161.443 18.4672 161.443 18.1618C161.443 17.8768 161.576 17.663 161.84 17.5205C162.104 17.3576 162.501 17.2763 163.031 17.2763C163.581 17.2763 164.14 17.3882 164.71 17.6121C165.301 17.836 165.83 18.2229 166.298 18.7726L168.955 16.0853C168.284 15.2302 167.408 14.5888 166.329 14.1614C165.271 13.7135 164.11 13.4895 162.848 13.4895C161.647 13.4895 160.598 13.6931 159.703 14.1002C158.806 14.5075 158.114 15.0673 157.626 15.7798C157.137 16.472 156.893 17.2966 156.893 18.2535C156.893 19.1492 157.066 19.8923 157.412 20.4827C157.758 21.0527 158.206 21.5007 158.755 21.8264C159.305 22.1521 159.886 22.4066 160.496 22.5898C161.107 22.773 161.687 22.9461 162.237 23.109C162.786 23.2515 163.235 23.4246 163.581 23.6282C163.948 23.8114 164.131 24.0862 164.131 24.4526C164.131 24.7377 163.977 24.9616 163.672 25.1245C163.387 25.2873 162.97 25.3688 162.42 25.3688C161.626 25.3688 160.893 25.2263 160.222 24.9412C159.55 24.6359 158.969 24.2185 158.481 23.6892L155.824 26.3765C156.333 26.9262 156.944 27.4149 157.657 27.8424C158.389 28.2495 159.173 28.5651 160.008 28.7891Z" fill="white"/>
<path d="M177.17 29.0942C175.806 29.0942 174.595 28.8194 173.537 28.2697C172.498 27.6997 171.684 26.926 171.094 25.9488C170.502 24.9513 170.208 23.8112 170.208 22.5285V13.9169H174.88V22.4675C174.88 22.9764 174.961 23.4142 175.125 23.7806C175.308 24.1471 175.572 24.4321 175.918 24.6357C176.265 24.8393 176.682 24.9411 177.17 24.9411C177.862 24.9411 178.412 24.7273 178.82 24.2997C179.227 23.8519 179.43 23.2411 179.43 22.4675V13.9169H184.102V22.498C184.102 23.801 183.808 24.9513 183.216 25.9488C182.626 26.926 181.812 27.6997 180.773 28.2697C179.735 28.8194 178.535 29.0942 177.17 29.0942Z" fill="white"/>
<path d="M191.097 13.9173H186.425V28.7587H191.097V20.0859C191.097 19.577 191.199 19.1494 191.403 18.8033C191.627 18.4573 191.923 18.1925 192.289 18.0094C192.655 17.8057 193.072 17.7039 193.54 17.7039C194.213 17.7039 194.772 17.9177 195.22 18.3453C195.689 18.7524 195.923 19.3327 195.923 20.0859V28.7587H200.595V20.0859C200.595 19.577 200.697 19.1494 200.9 18.8033C201.125 18.4573 201.419 18.1925 201.786 18.0094C202.152 17.8057 202.57 17.7039 203.038 17.7039C203.71 17.7039 204.27 17.9177 204.717 18.3453C205.185 18.7524 205.419 19.3327 205.419 20.0859V28.7587H210.093V19.5668C210.093 18.3249 209.828 17.2663 209.298 16.3908C208.789 15.495 208.087 14.813 207.191 14.3448C206.316 13.8561 205.308 13.6118 204.168 13.6118C203.007 13.6118 201.959 13.8663 201.023 14.3753C200.414 14.6996 199.882 15.1181 199.427 15.6308C199.002 15.0945 198.486 14.6557 197.877 14.3142C197.063 13.846 196.137 13.6118 195.098 13.6118C193.999 13.6118 193.012 13.846 192.136 14.3142C191.755 14.509 191.409 14.7423 191.097 15.0142V13.9173Z" fill="white"/>
</g>
</g>
<defs>
<clipPath id="clip0_2_3872">
<rect width="211.852" height="38.5185" fill="white" transform="translate(0.963745)"/>
</clipPath>
<clipPath id="clip1_2_3872">
<rect width="194.519" height="38.5185" fill="white" transform="translate(16.0008)"/>
</clipPath>
</defs>
</svg>
