<svg width="40" height="32" viewBox="0 0 40 32" fill="none" xmlns="http://www.w3.org/2000/svg">
<g clip-path="url(#clip0_2_4151)">
<path fill-rule="evenodd" clip-rule="evenodd" d="M24.492 0.703605C33.0253 0.703605 39.9409 7.55279 39.9409 16.0001C39.9443 19.1354 38.973 22.1942 37.1614 24.7531C37.1614 23.2585 37.2715 21.0396 37.2934 18.8864C37.3292 15.402 37.3328 12.4909 34.9413 9.70456C34.0374 8.65202 32.9162 7.8078 31.6549 7.22997C30.3936 6.65214 29.0221 6.35442 27.6348 6.35729C22.339 6.35729 18.0476 10.6076 18.0476 15.8506C18.0476 21.0936 22.339 25.3417 27.6348 25.3417C29.0599 25.3446 30.4679 25.0302 31.7565 24.4213C33.0451 23.8125 34.1821 22.9244 35.085 21.8216V27.1339C32.2107 29.8165 28.4235 31.3048 24.492 31.2967C17.8937 31.2967 12.2632 27.2003 10.0511 21.4372H9.17585C9.05275 21.7044 8.84072 21.9207 8.57596 22.049C8.31119 22.1773 8.0101 22.2097 7.72409 22.1408C7.43807 22.0718 7.18485 21.9057 7.00765 21.6708C6.83046 21.4359 6.74027 21.1468 6.75248 20.8528C6.76469 20.5588 6.87855 20.2782 7.07461 20.0588C7.27068 19.8394 7.5368 19.6949 7.82755 19.6498C8.1183 19.6048 8.41566 19.6621 8.66887 19.812C8.92209 19.9618 9.11545 20.1949 9.21597 20.4714H13.4374C13.5504 20.7169 13.7451 20.9155 13.9882 21.0334C14.2314 21.1513 14.5079 21.1812 14.7705 21.1179C15.0332 21.0546 15.2658 20.9022 15.4287 20.6865C15.5915 20.4709 15.6744 20.2054 15.6633 19.9354C15.6522 19.6654 15.5478 19.4076 15.3678 19.206C15.1879 19.0044 14.9436 18.8716 14.6766 18.8301C14.4096 18.7886 14.1364 18.841 13.9038 18.9785C13.6712 19.1159 13.4934 19.3298 13.4009 19.5837H9.47051C9.18601 18.4105 9.04277 17.2074 9.04384 16.0001C9.04384 15.8302 9.04384 15.6624 9.05114 15.4939H2.4258C2.30306 15.7617 2.09118 15.9785 1.82635 16.1073C1.56151 16.2362 1.26016 16.2691 0.973768 16.2004C0.687374 16.1317 0.433711 15.9657 0.256111 15.7308C0.0785116 15.4958 -0.0120052 15.2065 2.38396e-05 14.9122C0.0120529 14.6179 0.125882 14.3369 0.322064 14.1172C0.518247 13.8975 0.784612 13.7528 1.07565 13.7077C1.3667 13.6626 1.66436 13.72 1.9178 13.8701C2.17123 14.0201 2.36471 14.2535 2.46518 14.5304H12.8014C12.9202 14.7904 13.1257 15.0012 13.3826 15.1266C13.6396 15.252 13.9321 15.2842 14.2102 15.2179C14.4883 15.1515 14.7347 14.9907 14.9074 14.7628C15.0801 14.5349 15.1683 14.2541 15.1569 13.9684C15.1455 13.6826 15.0353 13.4097 14.8451 13.1963C14.6549 12.9828 14.3964 12.842 14.1139 12.798C13.8314 12.7539 13.5424 12.8093 13.2962 12.9548C13.0501 13.1002 12.862 13.3266 12.7642 13.5953H9.23274C9.48341 12.0261 9.97987 10.5063 10.7038 9.09186H6.46052C6.29523 9.45172 6.01016 9.74305 5.65399 9.91609C5.29781 10.0891 4.89262 10.1331 4.5076 10.0406C4.12258 9.94811 3.78161 9.72479 3.54292 9.40881C3.30423 9.09283 3.18262 8.70378 3.19885 8.3081C3.21509 7.91241 3.36816 7.53464 3.63193 7.23928C3.89571 6.94391 4.25382 6.74929 4.64513 6.68863C5.03643 6.62797 5.43666 6.70504 5.77746 6.90668C6.11827 7.10832 6.37851 7.42203 6.51376 7.79423H16.2643C16.3951 8.08022 16.621 8.31195 16.9036 8.44983C17.1862 8.5877 17.5079 8.62318 17.8138 8.55019C18.1196 8.4772 18.3906 8.30028 18.5805 8.04964C18.7704 7.79901 18.8674 7.49021 18.855 7.17599C18.8425 6.86177 18.7213 6.56163 18.5122 6.32684C18.303 6.09204 18.0188 5.93716 17.7081 5.88864C17.3975 5.84012 17.0796 5.90098 16.8088 6.06082C16.538 6.22066 16.3311 6.46957 16.2235 6.76503H12.1734C13.6223 4.87524 15.4876 3.34519 17.6241 2.2939C19.7606 1.2426 22.1109 0.698392 24.492 0.703605ZM8.02276 20.1549C8.18031 20.147 8.33661 20.1865 8.47147 20.2684C8.60634 20.3502 8.71359 20.4706 8.77938 20.6139C8.84517 20.7573 8.86649 20.9171 8.84058 21.0728C8.81466 21.2284 8.74271 21.3727 8.634 21.487C8.5253 21.6013 8.38483 21.6804 8.23072 21.7141C8.07662 21.7478 7.91595 21.7346 7.76946 21.676C7.62296 21.6175 7.49736 21.5164 7.40887 21.3858C7.32038 21.2552 7.27305 21.1011 7.273 20.9434C7.26791 20.7394 7.34403 20.5417 7.48463 20.3939C7.62523 20.246 7.8188 20.16 8.02276 20.1549ZM4.92671 7.36315C5.47663 7.36315 5.9208 7.83143 5.9208 8.40694C5.9208 8.98244 5.47663 9.45073 4.92671 9.45073C4.37679 9.45073 3.93335 8.98244 3.93335 8.40694C3.93335 7.83143 4.37606 7.36315 4.92671 7.36315ZM1.28 14.2371C1.46757 14.2474 1.64409 14.3291 1.77324 14.4655C1.9024 14.602 1.97438 14.7827 1.97438 14.9706C1.97438 15.1584 1.9024 15.3392 1.77324 15.4756C1.64409 15.612 1.46757 15.6937 1.28 15.704C1.09243 15.6937 0.915919 15.612 0.786764 15.4756C0.657608 15.3392 0.585629 15.1584 0.585629 14.9706C0.585629 14.7827 0.657608 14.602 0.786764 14.4655C0.915919 14.3291 1.09243 14.2474 1.28 14.2371ZM14.5299 19.2869C14.6758 19.287 14.8182 19.3304 14.9394 19.4115C15.0606 19.4926 15.155 19.6078 15.2107 19.7426C15.2664 19.8774 15.2809 20.0256 15.2523 20.1686C15.2238 20.3116 15.1535 20.4429 15.0504 20.546C14.9472 20.6491 14.8158 20.7192 14.6728 20.7476C14.5298 20.776 14.3816 20.7614 14.2469 20.7055C14.1122 20.6497 13.9971 20.5552 13.9161 20.4339C13.8351 20.3127 13.7919 20.1701 13.7919 20.0243C13.7919 19.9274 13.811 19.8314 13.8481 19.7419C13.8852 19.6524 13.9395 19.5711 14.0081 19.5026C14.0766 19.4341 14.158 19.3798 14.2475 19.3428C14.3371 19.3058 14.4331 19.2868 14.5299 19.2869ZM13.9231 13.329C14.0689 13.3292 14.2114 13.3725 14.3325 13.4536C14.4537 13.5347 14.5481 13.6499 14.6038 13.7846C14.6595 13.9193 14.674 14.0675 14.6456 14.2105C14.6171 14.3535 14.5469 14.4848 14.4438 14.5879C14.3407 14.691 14.2094 14.7612 14.0664 14.7897C13.9235 14.8182 13.7753 14.8036 13.6406 14.7479C13.5059 14.6922 13.3907 14.5978 13.3096 14.4766C13.2285 14.3554 13.1852 14.213 13.185 14.0672C13.1849 13.9702 13.204 13.8742 13.241 13.7846C13.2781 13.695 13.3325 13.6136 13.401 13.545C13.4696 13.4764 13.551 13.4221 13.6406 13.385C13.7302 13.3479 13.8262 13.3289 13.9231 13.329ZM17.4852 6.46597C17.6311 6.46582 17.7737 6.50893 17.895 6.58984C18.0164 6.67075 18.111 6.78583 18.1669 6.92053C18.2229 7.05522 18.2376 7.20348 18.2093 7.34656C18.181 7.48963 18.1109 7.6211 18.0079 7.72434C17.9049 7.82757 17.7735 7.89793 17.6305 7.92653C17.4875 7.95513 17.3393 7.94067 17.2045 7.88499C17.0697 7.82931 16.9544 7.7349 16.8733 7.61371C16.7921 7.49252 16.7487 7.34999 16.7486 7.20414C16.7486 7.00861 16.8262 6.82108 16.9643 6.68269C17.1024 6.5443 17.2897 6.46636 17.4852 6.46597Z" fill="#CDFF08"/>
<path d="M30.3625 21.4416C30.2764 21.4493 30.1906 21.4244 30.122 21.3718C30.0534 21.3193 30.007 21.2429 29.992 21.1578L29.6382 19.8872C29.6311 19.851 29.611 19.8186 29.5818 19.796C29.5525 19.7735 29.5161 19.7623 29.4792 19.7646H25.8056C25.7688 19.7624 25.7325 19.7736 25.7033 19.7961C25.6742 19.8186 25.6543 19.851 25.6473 19.8872L25.2936 21.1593C25.2786 21.2444 25.2322 21.3208 25.1635 21.3733C25.0949 21.4258 25.0091 21.4507 24.923 21.443H22.0618C21.8175 21.443 21.7103 21.284 21.7796 21.0535L23.867 14.4064H22.1494C22.0745 14.5469 21.9547 14.6584 21.8092 14.7231C21.6636 14.7877 21.5007 14.8019 21.3462 14.7633C21.1917 14.7247 21.0545 14.6355 20.9565 14.51C20.8585 14.3844 20.8052 14.2297 20.8052 14.0705C20.8052 13.9112 20.8585 13.7565 20.9565 13.631C21.0545 13.5054 21.1917 13.4163 21.3462 13.3777C21.5007 13.3391 21.6636 13.3532 21.8092 13.4179C21.9547 13.4826 22.0745 13.594 22.1494 13.7346H25.2352C25.2913 13.8398 25.381 13.9232 25.4899 13.9716C25.5989 14.02 25.7209 14.0305 25.8366 14.0016C25.9522 13.9727 26.0549 13.9059 26.1283 13.812C26.2017 13.718 26.2415 13.6022 26.2415 13.4829C26.2415 13.3637 26.2017 13.2479 26.1283 13.1539C26.0549 13.0599 25.9522 12.9932 25.8366 12.9642C25.7209 12.9353 25.5989 12.9459 25.4899 12.9943C25.381 13.0427 25.2913 13.1261 25.2352 13.2313H24.2367L25.454 9.35956C25.4719 9.27605 25.519 9.20165 25.5867 9.14966C25.6545 9.09767 25.7385 9.07149 25.8238 9.07582H29.4654C29.5507 9.07149 29.6347 9.09767 29.7025 9.14966C29.7702 9.20165 29.8173 9.27605 29.8352 9.35956L33.5059 21.0542C33.5789 21.2774 33.4651 21.4437 33.2237 21.4437L30.3625 21.4416ZM26.548 17.219H28.736C28.7562 17.2215 28.7767 17.2187 28.7955 17.211C28.8142 17.2032 28.8307 17.1907 28.8432 17.1747C28.8556 17.1586 28.8638 17.1397 28.8667 17.1195C28.8697 17.0994 28.8674 17.0789 28.86 17.06L27.7296 12.9796C27.704 12.8498 27.5961 12.8724 27.5523 12.9796L26.4583 16.9236C26.4335 17.0344 26.362 17.2153 26.5436 17.2153L26.548 17.219Z" fill="white"/>
</g>
<defs>
<clipPath id="clip0_2_4151">
<rect width="39.9409" height="30.593" fill="white" transform="translate(0 0.703476)"/>
</clipPath>
</defs>
</svg>
