<svg width="27" height="27" viewBox="0 0 27 27" fill="none" xmlns="http://www.w3.org/2000/svg">
<g clip-path="url(#clip0_2_3552)">
<path d="M19.0577 12.3438C11.9221 12.3438 15.1032 12.3438 7.17984 12.3438C6.52295 12.3438 5.97559 12.8911 5.97559 13.548C5.97559 13.8764 6.11247 14.1774 6.33143 14.3964C6.5504 14.6154 6.85148 14.7522 7.1798 14.7522C14.0524 14.7522 11.4647 14.7522 19.0576 14.7522C19.7145 14.7522 20.2619 14.2049 20.2619 13.5479C20.2619 12.891 19.7419 12.3438 19.0577 12.3438Z" fill="#18181D"/>
<path d="M13.1191 0.547852C5.94861 0.547852 0.119141 6.37733 0.119141 13.5479C0.119141 20.7184 5.94861 26.5479 13.1191 26.5479C20.2897 26.5479 26.1191 20.7184 26.1191 13.5479C26.1191 6.37733 20.2897 0.547852 13.1191 0.547852ZM13.1191 24.1394C7.2623 24.1394 2.52756 19.4047 2.52756 13.5479C2.52756 7.69096 7.26225 2.95627 13.1191 2.95627C18.976 2.95627 23.7107 7.69096 23.7107 13.5479C23.7107 19.4047 18.976 24.1394 13.1191 24.1394Z" fill="#18181D"/>
</g>
<defs>
<clipPath id="clip0_2_3552">
<rect width="26" height="26" fill="white" transform="translate(0.119141 0.547852)"/>
</clipPath>
</defs>
</svg>
