<svg width="33" height="32" viewBox="0 0 33 32" fill="none" xmlns="http://www.w3.org/2000/svg">
<rect x="0.111938" width="32" height="32" rx="16" fill="white" fill-opacity="0.1"/>
<path d="M21.8777 19.6185L20.8575 18.6923V15.1026C20.8575 12.8985 19.5604 11.0533 17.2984 10.5651V10.0769C17.2984 9.48103 16.7685 9 16.1121 9C15.4556 9 14.9257 9.48103 14.9257 10.0769V10.5651C12.6558 11.0533 11.3667 12.8913 11.3667 15.1026V18.6923L10.3464 19.6185C9.84816 20.0708 10.1962 20.8462 10.9001 20.8462H21.3162C22.028 20.8462 22.376 20.0708 21.8777 19.6185ZM19.2757 19.4103H12.9485V15.1026C12.9485 13.3221 14.1427 11.8718 16.1121 11.8718C18.0814 11.8718 19.2757 13.3221 19.2757 15.1026V19.4103ZM16.1121 23C16.9821 23 17.6939 22.3538 17.6939 21.5641H14.5303C14.5303 22.3538 15.2342 23 16.1121 23Z" fill="white"/>
</svg>
