<svg width="27" height="27" viewBox="0 0 27 27" fill="none" xmlns="http://www.w3.org/2000/svg">
<g clip-path="url(#clip0_2_3563)">
<path d="M19.0578 12.3432H14.3232V7.60856C14.3232 6.95167 13.7758 6.4043 13.1189 6.4043C12.462 6.4043 11.9146 6.95162 11.9146 7.60856V12.3432H7.17997C6.52308 12.3432 5.97571 12.8906 5.97571 13.5475C5.97571 13.8759 6.11259 14.1769 6.33156 14.3959C6.55053 14.6148 6.8516 14.7517 7.17993 14.7517H11.9146V19.4864C11.9146 19.8148 12.0515 20.1158 12.2705 20.3348C12.4894 20.5538 12.7905 20.6906 13.1188 20.6906C13.7757 20.6906 14.3231 20.1433 14.3231 19.4864V14.7517H19.0578C19.7147 14.7517 20.262 14.2044 20.262 13.5474C20.262 12.8905 19.742 12.3432 19.0578 12.3432L19.0578 12.3432Z" fill="#A0A4AD"/>
<path d="M13.1191 0.547852C5.94861 0.547852 0.119141 6.37733 0.119141 13.5479C0.119141 20.7184 5.94861 26.5479 13.1191 26.5479C20.2897 26.5479 26.1191 20.7184 26.1191 13.5479C26.1191 6.37733 20.2897 0.547852 13.1191 0.547852ZM13.1191 24.1394C7.2623 24.1394 2.52756 19.4047 2.52756 13.5479C2.52756 7.69096 7.26225 2.95627 13.1191 2.95627C18.976 2.95627 23.7107 7.69096 23.7107 13.5479C23.7107 19.4047 18.976 24.1394 13.1191 24.1394Z" fill="#A0A4AD"/>
</g>
<defs>
<clipPath id="clip0_2_3563">
<rect width="26" height="26" fill="white" transform="translate(0.119141 0.547852)"/>
</clipPath>
</defs>
</svg>
