<svg width="40" height="41" viewBox="0 0 40 41" fill="none" xmlns="http://www.w3.org/2000/svg">
<g opacity="0.8">
<path d="M10.8335 17.0369C10.4619 17.0369 10.1052 17.0936 9.75021 17.1452C9.86521 16.7586 9.98354 16.3652 10.1735 16.0119C10.3635 15.4986 10.6602 15.0536 10.9552 14.6052C11.2019 14.1202 11.6369 13.7919 11.9569 13.3769C12.2919 12.9736 12.7485 12.7052 13.1102 12.3702C13.4652 12.0202 13.9302 11.8452 14.3002 11.5986C14.6869 11.3769 15.0235 11.1319 15.3835 11.0152L16.2819 10.6452L17.0719 10.3169L16.2635 7.08691L15.2685 7.32691C14.9502 7.40691 14.5619 7.50025 14.1202 7.61191C13.6685 7.69525 13.1869 7.92358 12.6502 8.13191C12.1202 8.36858 11.5069 8.52858 10.9369 8.90858C10.3635 9.27191 9.70188 9.57525 9.11854 10.0619C8.55354 10.5636 7.87188 10.9986 7.36854 11.6369C6.81854 12.2336 6.27521 12.8602 5.85354 13.5736C5.36521 14.2536 5.03354 15.0002 4.68354 15.7386C4.36688 16.4769 4.11188 17.2319 3.90354 17.9652C3.50854 19.4352 3.33188 20.8319 3.26354 22.0269C3.20688 23.2236 3.24021 24.2186 3.31021 24.9386C3.33521 25.2786 3.38188 25.6086 3.41521 25.8369L3.45688 26.1169L3.50021 26.1069C3.79665 27.4916 4.47905 28.7641 5.46848 29.7772C6.45792 30.7903 7.71395 31.5026 9.09128 31.8316C10.4686 32.1607 11.911 32.0931 13.2515 31.6366C14.592 31.1802 15.7759 30.3536 16.6662 29.2524C17.5566 28.1512 18.117 26.8204 18.2826 25.4141C18.4482 24.0077 18.2123 22.5832 17.6021 21.3053C16.9919 20.0274 16.0324 18.9484 14.8346 18.193C13.6368 17.4376 12.2496 17.0368 10.8335 17.0369ZM29.1669 17.0369C28.7952 17.0369 28.4385 17.0936 28.0835 17.1452C28.1985 16.7586 28.3169 16.3652 28.5069 16.0119C28.6969 15.4986 28.9935 15.0536 29.2885 14.6052C29.5352 14.1202 29.9702 13.7919 30.2902 13.3769C30.6252 12.9736 31.0819 12.7052 31.4435 12.3702C31.7985 12.0202 32.2635 11.8452 32.6335 11.5986C33.0202 11.3769 33.3569 11.1319 33.7169 11.0152L34.6152 10.6452L35.4052 10.3169L34.5969 7.08691L33.6019 7.32691C33.2835 7.40691 32.8952 7.50025 32.4535 7.61191C32.0019 7.69525 31.5202 7.92358 30.9835 8.13191C30.4552 8.37025 29.8402 8.52858 29.2702 8.91025C28.6969 9.27358 28.0352 9.57691 27.4519 10.0636C26.8869 10.5652 26.2052 11.0002 25.7019 11.6369C25.1519 12.2336 24.6085 12.8602 24.1869 13.5736C23.6985 14.2536 23.3669 15.0002 23.0169 15.7386C22.7002 16.4769 22.4452 17.2319 22.2369 17.9652C21.8419 19.4352 21.6652 20.8319 21.5969 22.0269C21.5402 23.2236 21.5735 24.2186 21.6435 24.9386C21.6685 25.2786 21.7152 25.6086 21.7485 25.8369L21.7902 26.1169L21.8335 26.1069C22.13 27.4916 22.8124 28.7641 23.8018 29.7772C24.7912 30.7903 26.0473 31.5026 27.4246 31.8316C28.8019 32.1607 30.2443 32.0931 31.5848 31.6366C32.9253 31.1802 34.1092 30.3536 34.9995 29.2524C35.8899 28.1512 36.4503 26.8204 36.6159 25.4141C36.7815 24.0077 36.5456 22.5832 35.9354 21.3053C35.3252 20.0274 34.3658 18.9484 33.168 18.193C31.9701 17.4376 30.583 17.0368 29.1669 17.0369Z" fill="#CDFF09"/>
</g>
</svg>
