<svg width="34" height="32" viewBox="0 0 34 32" fill="none" xmlns="http://www.w3.org/2000/svg">
<path fill-rule="evenodd" clip-rule="evenodd" d="M16.0128 10C15.3887 9.99591 14.8151 10.3483 14.537 10.9058L14.2792 11.4216C14.1776 11.4593 14.0776 11.5006 13.9787 11.5452L13.4321 11.363C12.8416 11.1658 12.1862 11.3221 11.7486 11.7668C11.3173 12.2052 11.1692 12.8505 11.3639 13.4324L11.5461 13.978C11.5006 14.0776 11.4581 14.1782 11.4193 14.2806L10.9057 14.5374C10.3489 14.8152 9.99548 15.3883 10 16.0122C10.0045 16.6274 10.3559 17.1885 10.9047 17.4626L11.4215 17.7226C11.4593 17.8242 11.5005 17.9242 11.5451 18.0231L11.3639 18.5687C11.167 19.1587 11.3228 19.8136 11.7667 20.2513C12.2047 20.6831 12.85 20.8313 13.4321 20.637L13.9776 20.4559C14.0771 20.5012 14.178 20.5428 14.2802 20.5816L14.537 21.0942C14.8151 21.6517 15.3887 22.0048 16.0128 21.9999C16.6277 21.9958 17.189 21.6435 17.463 21.0942L17.7198 20.5805C17.8226 20.5424 17.9244 20.501 18.0245 20.4559L18.5679 20.637C19.15 20.8313 19.7953 20.6832 20.2333 20.2513C20.6775 19.8133 20.8335 19.1579 20.6361 18.5676L20.4549 18.022C20.5002 17.9228 20.5421 17.8224 20.5807 17.7204L21.0943 17.4626C21.6434 17.1886 21.9955 16.6276 22 16.0122C22.0045 15.3883 21.6511 14.8152 21.0943 14.5374L20.5785 14.2796C20.5406 14.1773 20.4996 14.0765 20.4549 13.9769L20.6361 13.4324V13.4313C20.8302 12.8498 20.6824 12.2049 20.2514 11.7668C19.8138 11.322 19.1584 11.1659 18.5679 11.363L18.0213 11.5452C17.9221 11.5 17.8217 11.458 17.7198 11.4194L17.463 10.9058C17.189 10.3565 16.6278 10.0048 16.0128 10ZM16.0043 11.0912C16.2094 11.0928 16.3948 11.2092 16.4869 11.3939L16.8332 12.0865C16.8657 12.1517 16.911 12.2096 16.9662 12.257C17.0215 12.3044 17.0857 12.3403 17.155 12.3625C17.3606 12.4281 17.5602 12.5104 17.7517 12.6097C17.8164 12.6434 17.8871 12.6637 17.9598 12.6696C18.0324 12.6755 18.1055 12.6667 18.1747 12.6438L18.9121 12.3987H18.9131C19.1118 12.3323 19.3277 12.3843 19.4736 12.5319C19.6173 12.6781 19.6659 12.8914 19.6004 13.0871V13.0882L19.3564 13.8224C19.3337 13.891 19.3248 13.9635 19.3303 14.0355C19.3357 14.1076 19.3555 14.1779 19.3884 14.2423C19.4865 14.4342 19.568 14.6343 19.6324 14.8401C19.6543 14.9101 19.6902 14.975 19.7378 15.0308C19.7854 15.0867 19.8437 15.1323 19.9094 15.1651L20.6063 15.5135C20.7937 15.607 20.9104 15.7959 20.9089 16.0037C20.9074 16.2085 20.791 16.3943 20.6063 16.4864H20.6052L19.9126 16.8338C19.8477 16.8665 19.7899 16.9117 19.7427 16.967C19.6955 17.0223 19.6598 17.0864 19.6377 17.1557C19.5717 17.3612 19.4891 17.5609 19.3894 17.7524C19.3556 17.8172 19.3352 17.8881 19.3293 17.961C19.3235 18.0339 19.3323 18.1071 19.3553 18.1765L19.6004 18.9129C19.6668 19.1114 19.6164 19.3273 19.4683 19.4734C19.3223 19.6173 19.1089 19.6666 18.9131 19.6012H18.9121L18.1779 19.3572C18.1092 19.3343 18.0365 19.3254 17.9643 19.3308C17.892 19.3363 17.8216 19.3562 17.757 19.3892C17.5648 19.4878 17.3654 19.5696 17.1593 19.6343C17.0893 19.6562 17.0244 19.6921 16.9686 19.7397C16.9127 19.7873 16.8671 19.8457 16.8343 19.9113L16.4869 20.6061C16.3948 20.7909 16.2095 20.9071 16.0043 20.9088C15.7959 20.9104 15.6066 20.7937 15.5131 20.6061L15.1668 19.9145C15.1343 19.8494 15.089 19.7914 15.0338 19.744C14.9785 19.6966 14.9143 19.6607 14.845 19.6385C14.6391 19.5726 14.439 19.4901 14.2472 19.3903C14.1824 19.3565 14.1115 19.336 14.0386 19.3302C13.9658 19.3243 13.8925 19.3331 13.8231 19.3562L13.0869 19.6012C12.8911 19.6666 12.6777 19.6177 12.5317 19.4734C12.3836 19.3274 12.3332 19.1115 12.3996 18.9129V18.9118L12.6436 18.1776C12.6663 18.1087 12.6751 18.0361 12.6694 17.9638C12.6638 17.8915 12.6438 17.8211 12.6106 17.7567C12.5122 17.5651 12.4303 17.3654 12.3655 17.1599C12.3437 17.0903 12.3081 17.0257 12.2609 16.9701C12.2137 16.9144 12.1558 16.8688 12.0906 16.836L11.3948 16.4864H11.3937C11.209 16.3943 11.0926 16.2086 11.0911 16.0037C11.0896 15.7959 11.2063 15.607 11.3937 15.5135L12.0863 15.1672C12.1515 15.1347 12.2095 15.0895 12.2569 15.0342C12.3042 14.9789 12.3401 14.9147 12.3623 14.8454C12.4283 14.6398 12.5109 14.4402 12.6106 14.2487C12.6442 14.184 12.6646 14.1132 12.6704 14.0406C12.6763 13.9679 12.6675 13.8948 12.6447 13.8256L12.3996 13.0882V13.0871C12.3341 12.8914 12.3827 12.678 12.5264 12.5319C12.6723 12.3837 12.8882 12.3325 13.0869 12.3987L13.8221 12.6438C13.8908 12.6667 13.9635 12.6757 14.0357 12.6702C14.108 12.6647 14.1784 12.6449 14.243 12.6119C14.4346 12.5137 14.6342 12.4323 14.8396 12.3678C14.9097 12.3459 14.9745 12.31 15.0304 12.2624C15.0862 12.2148 15.1319 12.1564 15.1646 12.0908L15.5131 11.3939C15.6066 11.2062 15.7959 11.0896 16.0043 11.0912ZM16.0021 13.2725C14.5021 13.2725 13.2712 14.4993 13.2712 15.9995C13.2712 17.4996 14.5021 18.7296 16.0021 18.7296C17.5022 18.7296 18.7277 17.4996 18.7277 15.9995C18.7277 14.4993 17.5022 13.2725 16.0021 13.2725ZM16.0021 14.3637C16.9125 14.3637 17.6366 15.089 17.6366 15.9995C17.6366 16.9099 16.9125 17.6384 16.0021 17.6384C15.0918 17.6384 14.3623 16.9099 14.3623 15.9995C14.3623 15.089 15.0918 14.3637 16.0021 14.3637Z" fill="#D2D3D6"/>
</svg>
