<svg width="116" height="52" viewBox="0 0 116 52" fill="none" xmlns="http://www.w3.org/2000/svg">
<path opacity="0.1" d="M110.874 42.8145C113.214 42.8145 115.112 44.7123 115.112 47.0527C115.112 49.393 113.214 51.29 110.874 51.29H4.35022C2.00991 51.29 0.112202 49.393 0.111938 47.0527C0.111938 44.7123 2.00975 42.8145 4.35022 42.8145H110.874ZM110.874 20.2803C113.214 20.2803 115.112 22.1781 115.112 24.5186C115.112 26.8588 113.214 28.7559 110.874 28.7559H4.35022C2.00991 28.7559 0.112202 26.8588 0.111938 24.5186C0.111938 22.1781 2.00975 20.2803 4.35022 20.2803H110.874ZM55.2467 0C57.587 0.000190584 59.484 1.89793 59.484 4.23828C59.4837 6.57841 57.5868 8.4754 55.2467 8.47559H4.35022C2.00991 8.47559 0.112202 6.57853 0.111938 4.23828C0.111938 1.89798 2.009 0.000263835 4.34924 0H55.2467Z" fill="#CDFF08"/>
</svg>
