<svg width="41" height="42" viewBox="0 0 41 42" fill="none" xmlns="http://www.w3.org/2000/svg">
<path d="M20.4605 0.663086H4.49998C0.877977 1.04746 0.0478941 4.3754 0.0856022 5.99133C0.0630217 10.8744 0.0314089 20.9589 0.0856022 22.2325C0.153344 23.8244 -0.0173297 27.6684 3.93615 32.9311C8.96719 39.6623 17.0776 41.1129 20.5039 40.9968C23.9561 41.0578 31.6829 41.143 34.9725 40.9968C39.2808 40.4007 40.4216 36.8195 40.4534 35.1033C40.472 33.5076 40.4979 28.2612 40.4534 20.0419C38.232 0.993089 22.5153 0.663086 20.4605 0.663086Z" fill="#CDFF09"/>
<path d="M13.2952 11.8003C7.71327 11.8003 6.2049 17.197 6.14845 19.8954C6.09199 20.5728 6.25006 22.3748 7.33392 24.1631C10.1452 28.905 15.971 28.126 18.1387 28.0244C19.8729 27.9431 20.4645 28.9615 20.5435 29.4808C20.734 30.8489 22.1475 31.6796 23.393 31.0824C28.3833 28.6899 35.0735 24.1476 34.4305 18.9809C33.6718 12.8842 28.7854 11.6535 26.437 11.8003H13.2952Z" fill="#09090F"/>
<circle cx="13.3968" cy="19.8954" r="2.84513" fill="#CDFF09"/>
<circle cx="27.0128" cy="19.8954" r="2.84513" fill="#CDFF09"/>
</svg>
